<mxfile host="Electron" agent="Mozilla/5.0 (Windows NT 10.0; Win64; x64) AppleWebKit/537.36 (KHTML, like Gecko) draw.io/24.7.8 Chrome/128.0.6613.36 Electron/32.0.1 Safari/537.36" version="24.7.8">
  <diagram name="Page-1" id="6d1c0Ow0MNwYsMNeIVh5">
    <mxGraphModel dx="3925" dy="1430" grid="1" gridSize="10" guides="1" tooltips="1" connect="1" arrows="1" fold="1" page="1" pageScale="1" pageWidth="850" pageHeight="1100" math="0" shadow="0">
      <root>
        <mxCell id="0" />
        <mxCell id="1" parent="0" />
        <mxCell id="R_btmFy2LlRhvHQ2iQoU-1" value="Students" style="shape=table;startSize=30;container=1;collapsible=0;childLayout=tableLayout;strokeColor=default;fontSize=16;" vertex="1" parent="1">
          <mxGeometry x="10" y="390" width="380" height="260" as="geometry" />
        </mxCell>
        <mxCell id="R_btmFy2LlRhvHQ2iQoU-2" value="" style="shape=tableRow;horizontal=0;startSize=0;swimlaneHead=0;swimlaneBody=0;strokeColor=inherit;top=0;left=0;bottom=0;right=0;collapsible=0;dropTarget=0;fillColor=none;points=[[0,0.5],[1,0.5]];portConstraint=eastwest;fontSize=16;" vertex="1" parent="R_btmFy2LlRhvHQ2iQoU-1">
          <mxGeometry y="30" width="380" height="30" as="geometry" />
        </mxCell>
        <mxCell id="R_btmFy2LlRhvHQ2iQoU-3" value="FIELD" style="shape=partialRectangle;html=1;whiteSpace=wrap;connectable=0;strokeColor=inherit;overflow=hidden;fillColor=none;top=0;left=0;bottom=0;right=0;pointerEvents=1;fontSize=16;" vertex="1" parent="R_btmFy2LlRhvHQ2iQoU-2">
          <mxGeometry width="110" height="30" as="geometry">
            <mxRectangle width="110" height="30" as="alternateBounds" />
          </mxGeometry>
        </mxCell>
        <mxCell id="R_btmFy2LlRhvHQ2iQoU-4" value="DATA TYPE" style="shape=partialRectangle;html=1;whiteSpace=wrap;connectable=0;strokeColor=inherit;overflow=hidden;fillColor=none;top=0;left=0;bottom=0;right=0;pointerEvents=1;fontSize=16;" vertex="1" parent="R_btmFy2LlRhvHQ2iQoU-2">
          <mxGeometry x="110" width="130" height="30" as="geometry">
            <mxRectangle width="130" height="30" as="alternateBounds" />
          </mxGeometry>
        </mxCell>
        <mxCell id="R_btmFy2LlRhvHQ2iQoU-5" value="CONSTRAINTS" style="shape=partialRectangle;html=1;whiteSpace=wrap;connectable=0;strokeColor=inherit;overflow=hidden;fillColor=none;top=0;left=0;bottom=0;right=0;pointerEvents=1;fontSize=16;" vertex="1" parent="R_btmFy2LlRhvHQ2iQoU-2">
          <mxGeometry x="240" width="140" height="30" as="geometry">
            <mxRectangle width="140" height="30" as="alternateBounds" />
          </mxGeometry>
        </mxCell>
        <mxCell id="R_btmFy2LlRhvHQ2iQoU-6" value="" style="shape=tableRow;horizontal=0;startSize=0;swimlaneHead=0;swimlaneBody=0;strokeColor=inherit;top=0;left=0;bottom=0;right=0;collapsible=0;dropTarget=0;fillColor=none;points=[[0,0.5],[1,0.5]];portConstraint=eastwest;fontSize=16;" vertex="1" parent="R_btmFy2LlRhvHQ2iQoU-1">
          <mxGeometry y="60" width="380" height="50" as="geometry" />
        </mxCell>
        <mxCell id="R_btmFy2LlRhvHQ2iQoU-7" value="&lt;font style=&quot;font-size: 12px;&quot;&gt;STUDENT&lt;/font&gt;_id" style="shape=partialRectangle;html=1;whiteSpace=wrap;connectable=0;strokeColor=inherit;overflow=hidden;fillColor=none;top=0;left=0;bottom=0;right=0;pointerEvents=1;fontSize=16;" vertex="1" parent="R_btmFy2LlRhvHQ2iQoU-6">
          <mxGeometry width="110" height="50" as="geometry">
            <mxRectangle width="110" height="50" as="alternateBounds" />
          </mxGeometry>
        </mxCell>
        <mxCell id="R_btmFy2LlRhvHQ2iQoU-8" value="INT" style="shape=partialRectangle;html=1;whiteSpace=wrap;connectable=0;strokeColor=inherit;overflow=hidden;fillColor=none;top=0;left=0;bottom=0;right=0;pointerEvents=1;fontSize=16;" vertex="1" parent="R_btmFy2LlRhvHQ2iQoU-6">
          <mxGeometry x="110" width="130" height="50" as="geometry">
            <mxRectangle width="130" height="50" as="alternateBounds" />
          </mxGeometry>
        </mxCell>
        <mxCell id="R_btmFy2LlRhvHQ2iQoU-9" value="PRIMARY KEY, AUTO_INCREMENT" style="shape=partialRectangle;html=1;whiteSpace=wrap;connectable=0;strokeColor=inherit;overflow=hidden;fillColor=none;top=0;left=0;bottom=0;right=0;pointerEvents=1;fontSize=16;" vertex="1" parent="R_btmFy2LlRhvHQ2iQoU-6">
          <mxGeometry x="240" width="140" height="50" as="geometry">
            <mxRectangle width="140" height="50" as="alternateBounds" />
          </mxGeometry>
        </mxCell>
        <mxCell id="R_btmFy2LlRhvHQ2iQoU-10" value="" style="shape=tableRow;horizontal=0;startSize=0;swimlaneHead=0;swimlaneBody=0;strokeColor=inherit;top=0;left=0;bottom=0;right=0;collapsible=0;dropTarget=0;fillColor=none;points=[[0,0.5],[1,0.5]];portConstraint=eastwest;fontSize=16;" vertex="1" parent="R_btmFy2LlRhvHQ2iQoU-1">
          <mxGeometry y="110" width="380" height="32" as="geometry" />
        </mxCell>
        <mxCell id="R_btmFy2LlRhvHQ2iQoU-11" value="first_name" style="shape=partialRectangle;html=1;whiteSpace=wrap;connectable=0;strokeColor=inherit;overflow=hidden;fillColor=none;top=0;left=0;bottom=0;right=0;pointerEvents=1;fontSize=16;" vertex="1" parent="R_btmFy2LlRhvHQ2iQoU-10">
          <mxGeometry width="110" height="32" as="geometry">
            <mxRectangle width="110" height="32" as="alternateBounds" />
          </mxGeometry>
        </mxCell>
        <mxCell id="R_btmFy2LlRhvHQ2iQoU-12" value="VARCHAR(50)" style="shape=partialRectangle;html=1;whiteSpace=wrap;connectable=0;strokeColor=inherit;overflow=hidden;fillColor=none;top=0;left=0;bottom=0;right=0;pointerEvents=1;fontSize=16;" vertex="1" parent="R_btmFy2LlRhvHQ2iQoU-10">
          <mxGeometry x="110" width="130" height="32" as="geometry">
            <mxRectangle width="130" height="32" as="alternateBounds" />
          </mxGeometry>
        </mxCell>
        <mxCell id="R_btmFy2LlRhvHQ2iQoU-13" value="" style="shape=partialRectangle;html=1;whiteSpace=wrap;connectable=0;strokeColor=inherit;overflow=hidden;fillColor=none;top=0;left=0;bottom=0;right=0;pointerEvents=1;fontSize=16;" vertex="1" parent="R_btmFy2LlRhvHQ2iQoU-10">
          <mxGeometry x="240" width="140" height="32" as="geometry">
            <mxRectangle width="140" height="32" as="alternateBounds" />
          </mxGeometry>
        </mxCell>
        <mxCell id="R_btmFy2LlRhvHQ2iQoU-14" value="" style="shape=tableRow;horizontal=0;startSize=0;swimlaneHead=0;swimlaneBody=0;strokeColor=inherit;top=0;left=0;bottom=0;right=0;collapsible=0;dropTarget=0;fillColor=none;points=[[0,0.5],[1,0.5]];portConstraint=eastwest;fontSize=16;" vertex="1" parent="R_btmFy2LlRhvHQ2iQoU-1">
          <mxGeometry y="142" width="380" height="28" as="geometry" />
        </mxCell>
        <mxCell id="R_btmFy2LlRhvHQ2iQoU-15" value="last_name" style="shape=partialRectangle;html=1;whiteSpace=wrap;connectable=0;strokeColor=inherit;overflow=hidden;fillColor=none;top=0;left=0;bottom=0;right=0;pointerEvents=1;fontSize=16;" vertex="1" parent="R_btmFy2LlRhvHQ2iQoU-14">
          <mxGeometry width="110" height="28" as="geometry">
            <mxRectangle width="110" height="28" as="alternateBounds" />
          </mxGeometry>
        </mxCell>
        <mxCell id="R_btmFy2LlRhvHQ2iQoU-16" value="VARCHAR(50)" style="shape=partialRectangle;html=1;whiteSpace=wrap;connectable=0;strokeColor=inherit;overflow=hidden;fillColor=none;top=0;left=0;bottom=0;right=0;pointerEvents=1;fontSize=16;" vertex="1" parent="R_btmFy2LlRhvHQ2iQoU-14">
          <mxGeometry x="110" width="130" height="28" as="geometry">
            <mxRectangle width="130" height="28" as="alternateBounds" />
          </mxGeometry>
        </mxCell>
        <mxCell id="R_btmFy2LlRhvHQ2iQoU-17" value="" style="shape=partialRectangle;html=1;whiteSpace=wrap;connectable=0;strokeColor=inherit;overflow=hidden;fillColor=none;top=0;left=0;bottom=0;right=0;pointerEvents=1;fontSize=16;" vertex="1" parent="R_btmFy2LlRhvHQ2iQoU-14">
          <mxGeometry x="240" width="140" height="28" as="geometry">
            <mxRectangle width="140" height="28" as="alternateBounds" />
          </mxGeometry>
        </mxCell>
        <mxCell id="R_btmFy2LlRhvHQ2iQoU-18" value="" style="shape=tableRow;horizontal=0;startSize=0;swimlaneHead=0;swimlaneBody=0;strokeColor=inherit;top=0;left=0;bottom=0;right=0;collapsible=0;dropTarget=0;fillColor=none;points=[[0,0.5],[1,0.5]];portConstraint=eastwest;fontSize=16;" vertex="1" parent="R_btmFy2LlRhvHQ2iQoU-1">
          <mxGeometry y="170" width="380" height="29" as="geometry" />
        </mxCell>
        <mxCell id="R_btmFy2LlRhvHQ2iQoU-19" value="date_of_birth" style="shape=partialRectangle;html=1;whiteSpace=wrap;connectable=0;strokeColor=inherit;overflow=hidden;fillColor=none;top=0;left=0;bottom=0;right=0;pointerEvents=1;fontSize=16;" vertex="1" parent="R_btmFy2LlRhvHQ2iQoU-18">
          <mxGeometry width="110" height="29" as="geometry">
            <mxRectangle width="110" height="29" as="alternateBounds" />
          </mxGeometry>
        </mxCell>
        <mxCell id="R_btmFy2LlRhvHQ2iQoU-20" value="DATE" style="shape=partialRectangle;html=1;whiteSpace=wrap;connectable=0;strokeColor=inherit;overflow=hidden;fillColor=none;top=0;left=0;bottom=0;right=0;pointerEvents=1;fontSize=16;" vertex="1" parent="R_btmFy2LlRhvHQ2iQoU-18">
          <mxGeometry x="110" width="130" height="29" as="geometry">
            <mxRectangle width="130" height="29" as="alternateBounds" />
          </mxGeometry>
        </mxCell>
        <mxCell id="R_btmFy2LlRhvHQ2iQoU-21" value="" style="shape=partialRectangle;html=1;whiteSpace=wrap;connectable=0;strokeColor=inherit;overflow=hidden;fillColor=none;top=0;left=0;bottom=0;right=0;pointerEvents=1;fontSize=16;" vertex="1" parent="R_btmFy2LlRhvHQ2iQoU-18">
          <mxGeometry x="240" width="140" height="29" as="geometry">
            <mxRectangle width="140" height="29" as="alternateBounds" />
          </mxGeometry>
        </mxCell>
        <mxCell id="R_btmFy2LlRhvHQ2iQoU-22" value="" style="shape=tableRow;horizontal=0;startSize=0;swimlaneHead=0;swimlaneBody=0;strokeColor=inherit;top=0;left=0;bottom=0;right=0;collapsible=0;dropTarget=0;fillColor=none;points=[[0,0.5],[1,0.5]];portConstraint=eastwest;fontSize=16;" vertex="1" parent="R_btmFy2LlRhvHQ2iQoU-1">
          <mxGeometry y="199" width="380" height="31" as="geometry" />
        </mxCell>
        <mxCell id="R_btmFy2LlRhvHQ2iQoU-23" value="email" style="shape=partialRectangle;html=1;whiteSpace=wrap;connectable=0;strokeColor=inherit;overflow=hidden;fillColor=none;top=0;left=0;bottom=0;right=0;pointerEvents=1;fontSize=16;" vertex="1" parent="R_btmFy2LlRhvHQ2iQoU-22">
          <mxGeometry width="110" height="31" as="geometry">
            <mxRectangle width="110" height="31" as="alternateBounds" />
          </mxGeometry>
        </mxCell>
        <mxCell id="R_btmFy2LlRhvHQ2iQoU-24" value="VARCHAR(100)" style="shape=partialRectangle;html=1;whiteSpace=wrap;connectable=0;strokeColor=inherit;overflow=hidden;fillColor=none;top=0;left=0;bottom=0;right=0;pointerEvents=1;fontSize=16;" vertex="1" parent="R_btmFy2LlRhvHQ2iQoU-22">
          <mxGeometry x="110" width="130" height="31" as="geometry">
            <mxRectangle width="130" height="31" as="alternateBounds" />
          </mxGeometry>
        </mxCell>
        <mxCell id="R_btmFy2LlRhvHQ2iQoU-25" value="" style="shape=partialRectangle;html=1;whiteSpace=wrap;connectable=0;strokeColor=inherit;overflow=hidden;fillColor=none;top=0;left=0;bottom=0;right=0;pointerEvents=1;fontSize=16;" vertex="1" parent="R_btmFy2LlRhvHQ2iQoU-22">
          <mxGeometry x="240" width="140" height="31" as="geometry">
            <mxRectangle width="140" height="31" as="alternateBounds" />
          </mxGeometry>
        </mxCell>
        <mxCell id="R_btmFy2LlRhvHQ2iQoU-26" value="" style="shape=tableRow;horizontal=0;startSize=0;swimlaneHead=0;swimlaneBody=0;strokeColor=inherit;top=0;left=0;bottom=0;right=0;collapsible=0;dropTarget=0;fillColor=none;points=[[0,0.5],[1,0.5]];portConstraint=eastwest;fontSize=16;" vertex="1" parent="R_btmFy2LlRhvHQ2iQoU-1">
          <mxGeometry y="230" width="380" height="30" as="geometry" />
        </mxCell>
        <mxCell id="R_btmFy2LlRhvHQ2iQoU-27" value="phone_number" style="shape=partialRectangle;html=1;whiteSpace=wrap;connectable=0;strokeColor=inherit;overflow=hidden;fillColor=none;top=0;left=0;bottom=0;right=0;pointerEvents=1;fontSize=16;" vertex="1" parent="R_btmFy2LlRhvHQ2iQoU-26">
          <mxGeometry width="110" height="30" as="geometry">
            <mxRectangle width="110" height="30" as="alternateBounds" />
          </mxGeometry>
        </mxCell>
        <mxCell id="R_btmFy2LlRhvHQ2iQoU-28" value="VARCHAR(15)" style="shape=partialRectangle;html=1;whiteSpace=wrap;connectable=0;strokeColor=inherit;overflow=hidden;fillColor=none;top=0;left=0;bottom=0;right=0;pointerEvents=1;fontSize=16;" vertex="1" parent="R_btmFy2LlRhvHQ2iQoU-26">
          <mxGeometry x="110" width="130" height="30" as="geometry">
            <mxRectangle width="130" height="30" as="alternateBounds" />
          </mxGeometry>
        </mxCell>
        <mxCell id="R_btmFy2LlRhvHQ2iQoU-29" value="" style="shape=partialRectangle;html=1;whiteSpace=wrap;connectable=0;strokeColor=inherit;overflow=hidden;fillColor=none;top=0;left=0;bottom=0;right=0;pointerEvents=1;fontSize=16;" vertex="1" parent="R_btmFy2LlRhvHQ2iQoU-26">
          <mxGeometry x="240" width="140" height="30" as="geometry">
            <mxRectangle width="140" height="30" as="alternateBounds" />
          </mxGeometry>
        </mxCell>
        <mxCell id="R_btmFy2LlRhvHQ2iQoU-63" value="Teachers" style="shape=table;startSize=20;container=1;collapsible=0;childLayout=tableLayout;strokeColor=default;fontSize=16;" vertex="1" parent="1">
          <mxGeometry x="-40" y="40" width="410" height="182" as="geometry" />
        </mxCell>
        <mxCell id="R_btmFy2LlRhvHQ2iQoU-64" value="" style="shape=tableRow;horizontal=0;startSize=0;swimlaneHead=0;swimlaneBody=0;strokeColor=inherit;top=0;left=0;bottom=0;right=0;collapsible=0;dropTarget=0;fillColor=none;points=[[0,0.5],[1,0.5]];portConstraint=eastwest;fontSize=16;" vertex="1" parent="R_btmFy2LlRhvHQ2iQoU-63">
          <mxGeometry y="20" width="410" height="20" as="geometry" />
        </mxCell>
        <mxCell id="R_btmFy2LlRhvHQ2iQoU-65" value="FIELD" style="shape=partialRectangle;html=1;whiteSpace=wrap;connectable=0;strokeColor=inherit;overflow=hidden;fillColor=none;top=0;left=0;bottom=0;right=0;pointerEvents=1;fontSize=16;" vertex="1" parent="R_btmFy2LlRhvHQ2iQoU-64">
          <mxGeometry width="186" height="20" as="geometry">
            <mxRectangle width="186" height="20" as="alternateBounds" />
          </mxGeometry>
        </mxCell>
        <mxCell id="R_btmFy2LlRhvHQ2iQoU-66" value="DATA TYPE" style="shape=partialRectangle;html=1;whiteSpace=wrap;connectable=0;strokeColor=inherit;overflow=hidden;fillColor=none;top=0;left=0;bottom=0;right=0;pointerEvents=1;fontSize=16;" vertex="1" parent="R_btmFy2LlRhvHQ2iQoU-64">
          <mxGeometry x="186" width="110" height="20" as="geometry">
            <mxRectangle width="110" height="20" as="alternateBounds" />
          </mxGeometry>
        </mxCell>
        <mxCell id="R_btmFy2LlRhvHQ2iQoU-67" value="CONSTRAINTS" style="shape=partialRectangle;html=1;whiteSpace=wrap;connectable=0;strokeColor=inherit;overflow=hidden;fillColor=none;top=0;left=0;bottom=0;right=0;pointerEvents=1;fontSize=16;" vertex="1" parent="R_btmFy2LlRhvHQ2iQoU-64">
          <mxGeometry x="296" width="114" height="20" as="geometry">
            <mxRectangle width="114" height="20" as="alternateBounds" />
          </mxGeometry>
        </mxCell>
        <mxCell id="R_btmFy2LlRhvHQ2iQoU-68" value="" style="shape=tableRow;horizontal=0;startSize=0;swimlaneHead=0;swimlaneBody=0;strokeColor=inherit;top=0;left=0;bottom=0;right=0;collapsible=0;dropTarget=0;fillColor=none;points=[[0,0.5],[1,0.5]];portConstraint=eastwest;fontSize=16;" vertex="1" parent="R_btmFy2LlRhvHQ2iQoU-63">
          <mxGeometry y="40" width="410" height="42" as="geometry" />
        </mxCell>
        <mxCell id="R_btmFy2LlRhvHQ2iQoU-69" value="teacher_id" style="shape=partialRectangle;html=1;whiteSpace=wrap;connectable=0;strokeColor=inherit;overflow=hidden;fillColor=none;top=0;left=0;bottom=0;right=0;pointerEvents=1;fontSize=16;" vertex="1" parent="R_btmFy2LlRhvHQ2iQoU-68">
          <mxGeometry width="186" height="42" as="geometry">
            <mxRectangle width="186" height="42" as="alternateBounds" />
          </mxGeometry>
        </mxCell>
        <mxCell id="R_btmFy2LlRhvHQ2iQoU-70" value="INT" style="shape=partialRectangle;html=1;whiteSpace=wrap;connectable=0;strokeColor=inherit;overflow=hidden;fillColor=none;top=0;left=0;bottom=0;right=0;pointerEvents=1;fontSize=16;" vertex="1" parent="R_btmFy2LlRhvHQ2iQoU-68">
          <mxGeometry x="186" width="110" height="42" as="geometry">
            <mxRectangle width="110" height="42" as="alternateBounds" />
          </mxGeometry>
        </mxCell>
        <mxCell id="R_btmFy2LlRhvHQ2iQoU-71" value="&lt;span style=&quot;color: rgb(31, 35, 40); font-family: -apple-system, BlinkMacSystemFont, &amp;quot;Segoe UI&amp;quot;, &amp;quot;Noto Sans&amp;quot;, Helvetica, Arial, sans-serif, &amp;quot;Apple Color Emoji&amp;quot;, &amp;quot;Segoe UI Emoji&amp;quot;; text-align: start; background-color: rgb(255, 255, 255);&quot;&gt;PRIMARY KEY, AUTO_INCREMENT&lt;/span&gt;" style="shape=partialRectangle;html=1;whiteSpace=wrap;connectable=0;strokeColor=inherit;overflow=hidden;fillColor=none;top=0;left=0;bottom=0;right=0;pointerEvents=1;fontSize=16;" vertex="1" parent="R_btmFy2LlRhvHQ2iQoU-68">
          <mxGeometry x="296" width="114" height="42" as="geometry">
            <mxRectangle width="114" height="42" as="alternateBounds" />
          </mxGeometry>
        </mxCell>
        <mxCell id="R_btmFy2LlRhvHQ2iQoU-72" value="" style="shape=tableRow;horizontal=0;startSize=0;swimlaneHead=0;swimlaneBody=0;strokeColor=inherit;top=0;left=0;bottom=0;right=0;collapsible=0;dropTarget=0;fillColor=none;points=[[0,0.5],[1,0.5]];portConstraint=eastwest;fontSize=16;" vertex="1" parent="R_btmFy2LlRhvHQ2iQoU-63">
          <mxGeometry y="82" width="410" height="28" as="geometry" />
        </mxCell>
        <mxCell id="R_btmFy2LlRhvHQ2iQoU-73" value="first_name" style="shape=partialRectangle;html=1;whiteSpace=wrap;connectable=0;strokeColor=inherit;overflow=hidden;fillColor=none;top=0;left=0;bottom=0;right=0;pointerEvents=1;fontSize=16;" vertex="1" parent="R_btmFy2LlRhvHQ2iQoU-72">
          <mxGeometry width="186" height="28" as="geometry">
            <mxRectangle width="186" height="28" as="alternateBounds" />
          </mxGeometry>
        </mxCell>
        <mxCell id="R_btmFy2LlRhvHQ2iQoU-74" value="VARCHAR(50)" style="shape=partialRectangle;html=1;whiteSpace=wrap;connectable=0;strokeColor=inherit;overflow=hidden;fillColor=none;top=0;left=0;bottom=0;right=0;pointerEvents=1;fontSize=16;" vertex="1" parent="R_btmFy2LlRhvHQ2iQoU-72">
          <mxGeometry x="186" width="110" height="28" as="geometry">
            <mxRectangle width="110" height="28" as="alternateBounds" />
          </mxGeometry>
        </mxCell>
        <mxCell id="R_btmFy2LlRhvHQ2iQoU-75" value="" style="shape=partialRectangle;html=1;whiteSpace=wrap;connectable=0;strokeColor=inherit;overflow=hidden;fillColor=none;top=0;left=0;bottom=0;right=0;pointerEvents=1;fontSize=16;" vertex="1" parent="R_btmFy2LlRhvHQ2iQoU-72">
          <mxGeometry x="296" width="114" height="28" as="geometry">
            <mxRectangle width="114" height="28" as="alternateBounds" />
          </mxGeometry>
        </mxCell>
        <mxCell id="R_btmFy2LlRhvHQ2iQoU-76" value="" style="shape=tableRow;horizontal=0;startSize=0;swimlaneHead=0;swimlaneBody=0;strokeColor=inherit;top=0;left=0;bottom=0;right=0;collapsible=0;dropTarget=0;fillColor=none;points=[[0,0.5],[1,0.5]];portConstraint=eastwest;fontSize=16;" vertex="1" parent="R_btmFy2LlRhvHQ2iQoU-63">
          <mxGeometry y="110" width="410" height="24" as="geometry" />
        </mxCell>
        <mxCell id="R_btmFy2LlRhvHQ2iQoU-77" value="last_name" style="shape=partialRectangle;html=1;whiteSpace=wrap;connectable=0;strokeColor=inherit;overflow=hidden;fillColor=none;top=0;left=0;bottom=0;right=0;pointerEvents=1;fontSize=16;" vertex="1" parent="R_btmFy2LlRhvHQ2iQoU-76">
          <mxGeometry width="186" height="24" as="geometry">
            <mxRectangle width="186" height="24" as="alternateBounds" />
          </mxGeometry>
        </mxCell>
        <mxCell id="R_btmFy2LlRhvHQ2iQoU-78" value="VARCHAR(50)" style="shape=partialRectangle;html=1;whiteSpace=wrap;connectable=0;strokeColor=inherit;overflow=hidden;fillColor=none;top=0;left=0;bottom=0;right=0;pointerEvents=1;fontSize=16;" vertex="1" parent="R_btmFy2LlRhvHQ2iQoU-76">
          <mxGeometry x="186" width="110" height="24" as="geometry">
            <mxRectangle width="110" height="24" as="alternateBounds" />
          </mxGeometry>
        </mxCell>
        <mxCell id="R_btmFy2LlRhvHQ2iQoU-79" value="" style="shape=partialRectangle;html=1;whiteSpace=wrap;connectable=0;strokeColor=inherit;overflow=hidden;fillColor=none;top=0;left=0;bottom=0;right=0;pointerEvents=1;fontSize=16;" vertex="1" parent="R_btmFy2LlRhvHQ2iQoU-76">
          <mxGeometry x="296" width="114" height="24" as="geometry">
            <mxRectangle width="114" height="24" as="alternateBounds" />
          </mxGeometry>
        </mxCell>
        <mxCell id="R_btmFy2LlRhvHQ2iQoU-80" value="" style="shape=tableRow;horizontal=0;startSize=0;swimlaneHead=0;swimlaneBody=0;strokeColor=inherit;top=0;left=0;bottom=0;right=0;collapsible=0;dropTarget=0;fillColor=none;points=[[0,0.5],[1,0.5]];portConstraint=eastwest;fontSize=16;" vertex="1" parent="R_btmFy2LlRhvHQ2iQoU-63">
          <mxGeometry y="134" width="410" height="26" as="geometry" />
        </mxCell>
        <mxCell id="R_btmFy2LlRhvHQ2iQoU-81" value="email" style="shape=partialRectangle;html=1;whiteSpace=wrap;connectable=0;strokeColor=inherit;overflow=hidden;fillColor=none;top=0;left=0;bottom=0;right=0;pointerEvents=1;fontSize=16;" vertex="1" parent="R_btmFy2LlRhvHQ2iQoU-80">
          <mxGeometry width="186" height="26" as="geometry">
            <mxRectangle width="186" height="26" as="alternateBounds" />
          </mxGeometry>
        </mxCell>
        <mxCell id="R_btmFy2LlRhvHQ2iQoU-82" value="VARCHAR(100)" style="shape=partialRectangle;html=1;whiteSpace=wrap;connectable=0;strokeColor=inherit;overflow=hidden;fillColor=none;top=0;left=0;bottom=0;right=0;pointerEvents=1;fontSize=16;" vertex="1" parent="R_btmFy2LlRhvHQ2iQoU-80">
          <mxGeometry x="186" width="110" height="26" as="geometry">
            <mxRectangle width="110" height="26" as="alternateBounds" />
          </mxGeometry>
        </mxCell>
        <mxCell id="R_btmFy2LlRhvHQ2iQoU-83" value="" style="shape=partialRectangle;html=1;whiteSpace=wrap;connectable=0;strokeColor=inherit;overflow=hidden;fillColor=none;top=0;left=0;bottom=0;right=0;pointerEvents=1;fontSize=16;" vertex="1" parent="R_btmFy2LlRhvHQ2iQoU-80">
          <mxGeometry x="296" width="114" height="26" as="geometry">
            <mxRectangle width="114" height="26" as="alternateBounds" />
          </mxGeometry>
        </mxCell>
        <mxCell id="R_btmFy2LlRhvHQ2iQoU-84" value="" style="shape=tableRow;horizontal=0;startSize=0;swimlaneHead=0;swimlaneBody=0;strokeColor=inherit;top=0;left=0;bottom=0;right=0;collapsible=0;dropTarget=0;fillColor=none;points=[[0,0.5],[1,0.5]];portConstraint=eastwest;fontSize=16;" vertex="1" parent="R_btmFy2LlRhvHQ2iQoU-63">
          <mxGeometry y="160" width="410" height="22" as="geometry" />
        </mxCell>
        <mxCell id="R_btmFy2LlRhvHQ2iQoU-85" value="phone_number" style="shape=partialRectangle;html=1;whiteSpace=wrap;connectable=0;strokeColor=inherit;overflow=hidden;fillColor=none;top=0;left=0;bottom=0;right=0;pointerEvents=1;fontSize=16;" vertex="1" parent="R_btmFy2LlRhvHQ2iQoU-84">
          <mxGeometry width="186" height="22" as="geometry">
            <mxRectangle width="186" height="22" as="alternateBounds" />
          </mxGeometry>
        </mxCell>
        <mxCell id="R_btmFy2LlRhvHQ2iQoU-86" value="VARCHAR(100)" style="shape=partialRectangle;html=1;whiteSpace=wrap;connectable=0;strokeColor=inherit;overflow=hidden;fillColor=none;top=0;left=0;bottom=0;right=0;pointerEvents=1;fontSize=16;" vertex="1" parent="R_btmFy2LlRhvHQ2iQoU-84">
          <mxGeometry x="186" width="110" height="22" as="geometry">
            <mxRectangle width="110" height="22" as="alternateBounds" />
          </mxGeometry>
        </mxCell>
        <mxCell id="R_btmFy2LlRhvHQ2iQoU-87" value="" style="shape=partialRectangle;html=1;whiteSpace=wrap;connectable=0;strokeColor=inherit;overflow=hidden;fillColor=none;top=0;left=0;bottom=0;right=0;pointerEvents=1;fontSize=16;" vertex="1" parent="R_btmFy2LlRhvHQ2iQoU-84">
          <mxGeometry x="296" width="114" height="22" as="geometry">
            <mxRectangle width="114" height="22" as="alternateBounds" />
          </mxGeometry>
        </mxCell>
        <mxCell id="R_btmFy2LlRhvHQ2iQoU-112" value="Classes" style="shape=table;startSize=26;container=1;collapsible=0;childLayout=tableLayout;strokeColor=default;fontSize=16;" vertex="1" parent="1">
          <mxGeometry x="540" y="52" width="480" height="176" as="geometry" />
        </mxCell>
        <mxCell id="R_btmFy2LlRhvHQ2iQoU-113" value="" style="shape=tableRow;horizontal=0;startSize=0;swimlaneHead=0;swimlaneBody=0;strokeColor=inherit;top=0;left=0;bottom=0;right=0;collapsible=0;dropTarget=0;fillColor=none;points=[[0,0.5],[1,0.5]];portConstraint=eastwest;fontSize=16;" vertex="1" parent="R_btmFy2LlRhvHQ2iQoU-112">
          <mxGeometry y="26" width="480" height="24" as="geometry" />
        </mxCell>
        <mxCell id="R_btmFy2LlRhvHQ2iQoU-114" value="FIELD" style="shape=partialRectangle;html=1;whiteSpace=wrap;connectable=0;strokeColor=inherit;overflow=hidden;fillColor=none;top=0;left=0;bottom=0;right=0;pointerEvents=1;fontSize=16;" vertex="1" parent="R_btmFy2LlRhvHQ2iQoU-113">
          <mxGeometry width="154" height="24" as="geometry">
            <mxRectangle width="154" height="24" as="alternateBounds" />
          </mxGeometry>
        </mxCell>
        <mxCell id="R_btmFy2LlRhvHQ2iQoU-115" value="DATA TYPE" style="shape=partialRectangle;html=1;whiteSpace=wrap;connectable=0;strokeColor=inherit;overflow=hidden;fillColor=none;top=0;left=0;bottom=0;right=0;pointerEvents=1;fontSize=16;" vertex="1" parent="R_btmFy2LlRhvHQ2iQoU-113">
          <mxGeometry x="154" width="124" height="24" as="geometry">
            <mxRectangle width="124" height="24" as="alternateBounds" />
          </mxGeometry>
        </mxCell>
        <mxCell id="R_btmFy2LlRhvHQ2iQoU-116" value="CONSTRAINTS" style="shape=partialRectangle;html=1;whiteSpace=wrap;connectable=0;strokeColor=inherit;overflow=hidden;fillColor=none;top=0;left=0;bottom=0;right=0;pointerEvents=1;fontSize=16;" vertex="1" parent="R_btmFy2LlRhvHQ2iQoU-113">
          <mxGeometry x="278" width="202" height="24" as="geometry">
            <mxRectangle width="202" height="24" as="alternateBounds" />
          </mxGeometry>
        </mxCell>
        <mxCell id="R_btmFy2LlRhvHQ2iQoU-117" value="" style="shape=tableRow;horizontal=0;startSize=0;swimlaneHead=0;swimlaneBody=0;strokeColor=inherit;top=0;left=0;bottom=0;right=0;collapsible=0;dropTarget=0;fillColor=none;points=[[0,0.5],[1,0.5]];portConstraint=eastwest;fontSize=16;" vertex="1" parent="R_btmFy2LlRhvHQ2iQoU-112">
          <mxGeometry y="50" width="480" height="42" as="geometry" />
        </mxCell>
        <mxCell id="R_btmFy2LlRhvHQ2iQoU-118" value="&lt;span style=&quot;color: rgb(31, 35, 40); font-family: -apple-system, BlinkMacSystemFont, &amp;quot;Segoe UI&amp;quot;, &amp;quot;Noto Sans&amp;quot;, Helvetica, Arial, sans-serif, &amp;quot;Apple Color Emoji&amp;quot;, &amp;quot;Segoe UI Emoji&amp;quot;; text-align: start; background-color: rgb(255, 255, 255);&quot;&gt;class_id&lt;/span&gt;" style="shape=partialRectangle;html=1;whiteSpace=wrap;connectable=0;strokeColor=inherit;overflow=hidden;fillColor=none;top=0;left=0;bottom=0;right=0;pointerEvents=1;fontSize=16;" vertex="1" parent="R_btmFy2LlRhvHQ2iQoU-117">
          <mxGeometry width="154" height="42" as="geometry">
            <mxRectangle width="154" height="42" as="alternateBounds" />
          </mxGeometry>
        </mxCell>
        <mxCell id="R_btmFy2LlRhvHQ2iQoU-119" value="INT" style="shape=partialRectangle;html=1;whiteSpace=wrap;connectable=0;strokeColor=inherit;overflow=hidden;fillColor=none;top=0;left=0;bottom=0;right=0;pointerEvents=1;fontSize=16;" vertex="1" parent="R_btmFy2LlRhvHQ2iQoU-117">
          <mxGeometry x="154" width="124" height="42" as="geometry">
            <mxRectangle width="124" height="42" as="alternateBounds" />
          </mxGeometry>
        </mxCell>
        <mxCell id="R_btmFy2LlRhvHQ2iQoU-120" value="&lt;span style=&quot;color: rgb(31, 35, 40); font-family: -apple-system, BlinkMacSystemFont, &amp;quot;Segoe UI&amp;quot;, &amp;quot;Noto Sans&amp;quot;, Helvetica, Arial, sans-serif, &amp;quot;Apple Color Emoji&amp;quot;, &amp;quot;Segoe UI Emoji&amp;quot;; text-align: start; background-color: rgb(255, 255, 255);&quot;&gt;&lt;font style=&quot;font-size: 14px;&quot;&gt;PRIMARY KEY, AUTO_INCREMENT&lt;/font&gt;&lt;/span&gt;" style="shape=partialRectangle;html=1;whiteSpace=wrap;connectable=0;strokeColor=inherit;overflow=hidden;fillColor=none;top=0;left=0;bottom=0;right=0;pointerEvents=1;fontSize=16;" vertex="1" parent="R_btmFy2LlRhvHQ2iQoU-117">
          <mxGeometry x="278" width="202" height="42" as="geometry">
            <mxRectangle width="202" height="42" as="alternateBounds" />
          </mxGeometry>
        </mxCell>
        <mxCell id="R_btmFy2LlRhvHQ2iQoU-121" value="" style="shape=tableRow;horizontal=0;startSize=0;swimlaneHead=0;swimlaneBody=0;strokeColor=inherit;top=0;left=0;bottom=0;right=0;collapsible=0;dropTarget=0;fillColor=none;points=[[0,0.5],[1,0.5]];portConstraint=eastwest;fontSize=16;" vertex="1" parent="R_btmFy2LlRhvHQ2iQoU-112">
          <mxGeometry y="92" width="480" height="24" as="geometry" />
        </mxCell>
        <mxCell id="R_btmFy2LlRhvHQ2iQoU-122" value="&lt;span style=&quot;color: rgb(31, 35, 40); font-family: -apple-system, BlinkMacSystemFont, &amp;quot;Segoe UI&amp;quot;, &amp;quot;Noto Sans&amp;quot;, Helvetica, Arial, sans-serif, &amp;quot;Apple Color Emoji&amp;quot;, &amp;quot;Segoe UI Emoji&amp;quot;; text-align: start; background-color: rgb(246, 248, 250);&quot;&gt;class_name&lt;/span&gt;" style="shape=partialRectangle;html=1;whiteSpace=wrap;connectable=0;strokeColor=inherit;overflow=hidden;fillColor=none;top=0;left=0;bottom=0;right=0;pointerEvents=1;fontSize=16;" vertex="1" parent="R_btmFy2LlRhvHQ2iQoU-121">
          <mxGeometry width="154" height="24" as="geometry">
            <mxRectangle width="154" height="24" as="alternateBounds" />
          </mxGeometry>
        </mxCell>
        <mxCell id="R_btmFy2LlRhvHQ2iQoU-123" value="VARCHAR(100)" style="shape=partialRectangle;html=1;whiteSpace=wrap;connectable=0;strokeColor=inherit;overflow=hidden;fillColor=none;top=0;left=0;bottom=0;right=0;pointerEvents=1;fontSize=16;" vertex="1" parent="R_btmFy2LlRhvHQ2iQoU-121">
          <mxGeometry x="154" width="124" height="24" as="geometry">
            <mxRectangle width="124" height="24" as="alternateBounds" />
          </mxGeometry>
        </mxCell>
        <mxCell id="R_btmFy2LlRhvHQ2iQoU-124" value="" style="shape=partialRectangle;html=1;whiteSpace=wrap;connectable=0;strokeColor=inherit;overflow=hidden;fillColor=none;top=0;left=0;bottom=0;right=0;pointerEvents=1;fontSize=16;" vertex="1" parent="R_btmFy2LlRhvHQ2iQoU-121">
          <mxGeometry x="278" width="202" height="24" as="geometry">
            <mxRectangle width="202" height="24" as="alternateBounds" />
          </mxGeometry>
        </mxCell>
        <mxCell id="R_btmFy2LlRhvHQ2iQoU-125" value="" style="shape=tableRow;horizontal=0;startSize=0;swimlaneHead=0;swimlaneBody=0;strokeColor=inherit;top=0;left=0;bottom=0;right=0;collapsible=0;dropTarget=0;fillColor=none;points=[[0,0.5],[1,0.5]];portConstraint=eastwest;fontSize=16;" vertex="1" parent="R_btmFy2LlRhvHQ2iQoU-112">
          <mxGeometry y="116" width="480" height="20" as="geometry" />
        </mxCell>
        <mxCell id="R_btmFy2LlRhvHQ2iQoU-126" value="&lt;span style=&quot;color: rgb(31, 35, 40); font-family: -apple-system, BlinkMacSystemFont, &amp;quot;Segoe UI&amp;quot;, &amp;quot;Noto Sans&amp;quot;, Helvetica, Arial, sans-serif, &amp;quot;Apple Color Emoji&amp;quot;, &amp;quot;Segoe UI Emoji&amp;quot;; text-align: start; background-color: rgb(255, 255, 255);&quot;&gt;description&lt;/span&gt;" style="shape=partialRectangle;html=1;whiteSpace=wrap;connectable=0;strokeColor=inherit;overflow=hidden;fillColor=none;top=0;left=0;bottom=0;right=0;pointerEvents=1;fontSize=16;" vertex="1" parent="R_btmFy2LlRhvHQ2iQoU-125">
          <mxGeometry width="154" height="20" as="geometry">
            <mxRectangle width="154" height="20" as="alternateBounds" />
          </mxGeometry>
        </mxCell>
        <mxCell id="R_btmFy2LlRhvHQ2iQoU-127" value="&lt;span style=&quot;color: rgb(31, 35, 40); font-family: -apple-system, BlinkMacSystemFont, &amp;quot;Segoe UI&amp;quot;, &amp;quot;Noto Sans&amp;quot;, Helvetica, Arial, sans-serif, &amp;quot;Apple Color Emoji&amp;quot;, &amp;quot;Segoe UI Emoji&amp;quot;; text-align: start; background-color: rgb(255, 255, 255);&quot;&gt;TEXT&lt;/span&gt;" style="shape=partialRectangle;html=1;whiteSpace=wrap;connectable=0;strokeColor=inherit;overflow=hidden;fillColor=none;top=0;left=0;bottom=0;right=0;pointerEvents=1;fontSize=16;" vertex="1" parent="R_btmFy2LlRhvHQ2iQoU-125">
          <mxGeometry x="154" width="124" height="20" as="geometry">
            <mxRectangle width="124" height="20" as="alternateBounds" />
          </mxGeometry>
        </mxCell>
        <mxCell id="R_btmFy2LlRhvHQ2iQoU-128" value="" style="shape=partialRectangle;html=1;whiteSpace=wrap;connectable=0;strokeColor=inherit;overflow=hidden;fillColor=none;top=0;left=0;bottom=0;right=0;pointerEvents=1;fontSize=16;" vertex="1" parent="R_btmFy2LlRhvHQ2iQoU-125">
          <mxGeometry x="278" width="202" height="20" as="geometry">
            <mxRectangle width="202" height="20" as="alternateBounds" />
          </mxGeometry>
        </mxCell>
        <mxCell id="R_btmFy2LlRhvHQ2iQoU-129" value="" style="shape=tableRow;horizontal=0;startSize=0;swimlaneHead=0;swimlaneBody=0;strokeColor=inherit;top=0;left=0;bottom=0;right=0;collapsible=0;dropTarget=0;fillColor=none;points=[[0,0.5],[1,0.5]];portConstraint=eastwest;fontSize=16;" vertex="1" parent="R_btmFy2LlRhvHQ2iQoU-112">
          <mxGeometry y="136" width="480" height="40" as="geometry" />
        </mxCell>
        <mxCell id="R_btmFy2LlRhvHQ2iQoU-130" value="&lt;span style=&quot;color: rgb(31, 35, 40); font-family: -apple-system, BlinkMacSystemFont, &amp;quot;Segoe UI&amp;quot;, &amp;quot;Noto Sans&amp;quot;, Helvetica, Arial, sans-serif, &amp;quot;Apple Color Emoji&amp;quot;, &amp;quot;Segoe UI Emoji&amp;quot;; text-align: start; background-color: rgb(246, 248, 250);&quot;&gt;teacher_id&lt;/span&gt;" style="shape=partialRectangle;html=1;whiteSpace=wrap;connectable=0;strokeColor=inherit;overflow=hidden;fillColor=none;top=0;left=0;bottom=0;right=0;pointerEvents=1;fontSize=16;" vertex="1" parent="R_btmFy2LlRhvHQ2iQoU-129">
          <mxGeometry width="154" height="40" as="geometry">
            <mxRectangle width="154" height="40" as="alternateBounds" />
          </mxGeometry>
        </mxCell>
        <mxCell id="R_btmFy2LlRhvHQ2iQoU-131" value="&lt;span style=&quot;color: rgb(31, 35, 40); font-family: -apple-system, BlinkMacSystemFont, &amp;quot;Segoe UI&amp;quot;, &amp;quot;Noto Sans&amp;quot;, Helvetica, Arial, sans-serif, &amp;quot;Apple Color Emoji&amp;quot;, &amp;quot;Segoe UI Emoji&amp;quot;; text-align: start; background-color: rgb(255, 255, 255);&quot;&gt;INT&lt;/span&gt;" style="shape=partialRectangle;html=1;whiteSpace=wrap;connectable=0;strokeColor=inherit;overflow=hidden;fillColor=none;top=0;left=0;bottom=0;right=0;pointerEvents=1;fontSize=16;" vertex="1" parent="R_btmFy2LlRhvHQ2iQoU-129">
          <mxGeometry x="154" width="124" height="40" as="geometry">
            <mxRectangle width="124" height="40" as="alternateBounds" />
          </mxGeometry>
        </mxCell>
        <mxCell id="R_btmFy2LlRhvHQ2iQoU-132" value="&lt;font style=&quot;font-size: 14px;&quot;&gt;REFERENCES&lt;/font&gt; Teachers(teacher_id)" style="shape=partialRectangle;html=1;whiteSpace=wrap;connectable=0;strokeColor=inherit;overflow=hidden;fillColor=none;top=0;left=0;bottom=0;right=0;pointerEvents=1;fontSize=16;" vertex="1" parent="R_btmFy2LlRhvHQ2iQoU-129">
          <mxGeometry x="278" width="202" height="40" as="geometry">
            <mxRectangle width="202" height="40" as="alternateBounds" />
          </mxGeometry>
        </mxCell>
        <mxCell id="R_btmFy2LlRhvHQ2iQoU-145" value="Attendance" style="shape=table;startSize=30;container=1;collapsible=0;childLayout=tableLayout;strokeColor=default;fontSize=16;" vertex="1" parent="1">
          <mxGeometry x="562.5" y="400" width="421" height="240" as="geometry" />
        </mxCell>
        <mxCell id="R_btmFy2LlRhvHQ2iQoU-146" value="" style="shape=tableRow;horizontal=0;startSize=0;swimlaneHead=0;swimlaneBody=0;strokeColor=inherit;top=0;left=0;bottom=0;right=0;collapsible=0;dropTarget=0;fillColor=none;points=[[0,0.5],[1,0.5]];portConstraint=eastwest;fontSize=16;" vertex="1" parent="R_btmFy2LlRhvHQ2iQoU-145">
          <mxGeometry y="30" width="421" height="21" as="geometry" />
        </mxCell>
        <mxCell id="R_btmFy2LlRhvHQ2iQoU-147" value="FIELD" style="shape=partialRectangle;html=1;whiteSpace=wrap;connectable=0;strokeColor=inherit;overflow=hidden;fillColor=none;top=0;left=0;bottom=0;right=0;pointerEvents=1;fontSize=16;" vertex="1" parent="R_btmFy2LlRhvHQ2iQoU-146">
          <mxGeometry width="157" height="21" as="geometry">
            <mxRectangle width="157" height="21" as="alternateBounds" />
          </mxGeometry>
        </mxCell>
        <mxCell id="R_btmFy2LlRhvHQ2iQoU-148" value="DATA TYPE" style="shape=partialRectangle;html=1;whiteSpace=wrap;connectable=0;strokeColor=inherit;overflow=hidden;fillColor=none;top=0;left=0;bottom=0;right=0;pointerEvents=1;fontSize=16;" vertex="1" parent="R_btmFy2LlRhvHQ2iQoU-146">
          <mxGeometry x="157" width="113" height="21" as="geometry">
            <mxRectangle width="113" height="21" as="alternateBounds" />
          </mxGeometry>
        </mxCell>
        <mxCell id="R_btmFy2LlRhvHQ2iQoU-149" value="CONSTRAINTS" style="shape=partialRectangle;html=1;whiteSpace=wrap;connectable=0;strokeColor=inherit;overflow=hidden;fillColor=none;top=0;left=0;bottom=0;right=0;pointerEvents=1;fontSize=16;" vertex="1" parent="R_btmFy2LlRhvHQ2iQoU-146">
          <mxGeometry x="270" width="151" height="21" as="geometry">
            <mxRectangle width="151" height="21" as="alternateBounds" />
          </mxGeometry>
        </mxCell>
        <mxCell id="R_btmFy2LlRhvHQ2iQoU-150" value="" style="shape=tableRow;horizontal=0;startSize=0;swimlaneHead=0;swimlaneBody=0;strokeColor=inherit;top=0;left=0;bottom=0;right=0;collapsible=0;dropTarget=0;fillColor=none;points=[[0,0.5],[1,0.5]];portConstraint=eastwest;fontSize=16;" vertex="1" parent="R_btmFy2LlRhvHQ2iQoU-145">
          <mxGeometry y="51" width="421" height="48" as="geometry" />
        </mxCell>
        <mxCell id="R_btmFy2LlRhvHQ2iQoU-151" value="&lt;span style=&quot;color: rgb(31, 35, 40); font-family: -apple-system, BlinkMacSystemFont, &amp;quot;Segoe UI&amp;quot;, &amp;quot;Noto Sans&amp;quot;, Helvetica, Arial, sans-serif, &amp;quot;Apple Color Emoji&amp;quot;, &amp;quot;Segoe UI Emoji&amp;quot;; text-align: start; background-color: rgb(255, 255, 255);&quot;&gt;attendance_id&lt;/span&gt;" style="shape=partialRectangle;html=1;whiteSpace=wrap;connectable=0;strokeColor=inherit;overflow=hidden;fillColor=none;top=0;left=0;bottom=0;right=0;pointerEvents=1;fontSize=16;" vertex="1" parent="R_btmFy2LlRhvHQ2iQoU-150">
          <mxGeometry width="157" height="48" as="geometry">
            <mxRectangle width="157" height="48" as="alternateBounds" />
          </mxGeometry>
        </mxCell>
        <mxCell id="R_btmFy2LlRhvHQ2iQoU-152" value="INT" style="shape=partialRectangle;html=1;whiteSpace=wrap;connectable=0;strokeColor=inherit;overflow=hidden;fillColor=none;top=0;left=0;bottom=0;right=0;pointerEvents=1;fontSize=16;" vertex="1" parent="R_btmFy2LlRhvHQ2iQoU-150">
          <mxGeometry x="157" width="113" height="48" as="geometry">
            <mxRectangle width="113" height="48" as="alternateBounds" />
          </mxGeometry>
        </mxCell>
        <mxCell id="R_btmFy2LlRhvHQ2iQoU-153" value="&lt;span style=&quot;color: rgb(31, 35, 40); font-family: -apple-system, BlinkMacSystemFont, &amp;quot;Segoe UI&amp;quot;, &amp;quot;Noto Sans&amp;quot;, Helvetica, Arial, sans-serif, &amp;quot;Apple Color Emoji&amp;quot;, &amp;quot;Segoe UI Emoji&amp;quot;; text-align: start; background-color: rgb(255, 255, 255);&quot;&gt;PRIMARY KEY, AUTO_INCREMENT&lt;/span&gt;" style="shape=partialRectangle;html=1;whiteSpace=wrap;connectable=0;strokeColor=inherit;overflow=hidden;fillColor=none;top=0;left=0;bottom=0;right=0;pointerEvents=1;fontSize=16;" vertex="1" parent="R_btmFy2LlRhvHQ2iQoU-150">
          <mxGeometry x="270" width="151" height="48" as="geometry">
            <mxRectangle width="151" height="48" as="alternateBounds" />
          </mxGeometry>
        </mxCell>
        <mxCell id="R_btmFy2LlRhvHQ2iQoU-154" value="" style="shape=tableRow;horizontal=0;startSize=0;swimlaneHead=0;swimlaneBody=0;strokeColor=inherit;top=0;left=0;bottom=0;right=0;collapsible=0;dropTarget=0;fillColor=none;points=[[0,0.5],[1,0.5]];portConstraint=eastwest;fontSize=16;" vertex="1" parent="R_btmFy2LlRhvHQ2iQoU-145">
          <mxGeometry y="99" width="421" height="48" as="geometry" />
        </mxCell>
        <mxCell id="R_btmFy2LlRhvHQ2iQoU-155" value="&lt;span style=&quot;color: rgb(31, 35, 40); font-family: -apple-system, BlinkMacSystemFont, &amp;quot;Segoe UI&amp;quot;, &amp;quot;Noto Sans&amp;quot;, Helvetica, Arial, sans-serif, &amp;quot;Apple Color Emoji&amp;quot;, &amp;quot;Segoe UI Emoji&amp;quot;; text-align: start; background-color: rgb(255, 255, 255);&quot;&gt;student_id&lt;/span&gt;" style="shape=partialRectangle;html=1;whiteSpace=wrap;connectable=0;strokeColor=inherit;overflow=hidden;fillColor=none;top=0;left=0;bottom=0;right=0;pointerEvents=1;fontSize=16;" vertex="1" parent="R_btmFy2LlRhvHQ2iQoU-154">
          <mxGeometry width="157" height="48" as="geometry">
            <mxRectangle width="157" height="48" as="alternateBounds" />
          </mxGeometry>
        </mxCell>
        <mxCell id="R_btmFy2LlRhvHQ2iQoU-156" value="INT" style="shape=partialRectangle;html=1;whiteSpace=wrap;connectable=0;strokeColor=inherit;overflow=hidden;fillColor=none;top=0;left=0;bottom=0;right=0;pointerEvents=1;fontSize=16;" vertex="1" parent="R_btmFy2LlRhvHQ2iQoU-154">
          <mxGeometry x="157" width="113" height="48" as="geometry">
            <mxRectangle width="113" height="48" as="alternateBounds" />
          </mxGeometry>
        </mxCell>
        <mxCell id="R_btmFy2LlRhvHQ2iQoU-157" value="REFERENCES Students(student_id)" style="shape=partialRectangle;html=1;whiteSpace=wrap;connectable=0;strokeColor=inherit;overflow=hidden;fillColor=none;top=0;left=0;bottom=0;right=0;pointerEvents=1;fontSize=16;" vertex="1" parent="R_btmFy2LlRhvHQ2iQoU-154">
          <mxGeometry x="270" width="151" height="48" as="geometry">
            <mxRectangle width="151" height="48" as="alternateBounds" />
          </mxGeometry>
        </mxCell>
        <mxCell id="R_btmFy2LlRhvHQ2iQoU-158" value="" style="shape=tableRow;horizontal=0;startSize=0;swimlaneHead=0;swimlaneBody=0;strokeColor=inherit;top=0;left=0;bottom=0;right=0;collapsible=0;dropTarget=0;fillColor=none;points=[[0,0.5],[1,0.5]];portConstraint=eastwest;fontSize=16;" vertex="1" parent="R_btmFy2LlRhvHQ2iQoU-145">
          <mxGeometry y="147" width="421" height="44" as="geometry" />
        </mxCell>
        <mxCell id="R_btmFy2LlRhvHQ2iQoU-159" value="&lt;span style=&quot;color: rgb(31, 35, 40); font-family: -apple-system, BlinkMacSystemFont, &amp;quot;Segoe UI&amp;quot;, &amp;quot;Noto Sans&amp;quot;, Helvetica, Arial, sans-serif, &amp;quot;Apple Color Emoji&amp;quot;, &amp;quot;Segoe UI Emoji&amp;quot;; text-align: start; background-color: rgb(246, 248, 250);&quot;&gt;class_id&lt;/span&gt;" style="shape=partialRectangle;html=1;whiteSpace=wrap;connectable=0;strokeColor=inherit;overflow=hidden;fillColor=none;top=0;left=0;bottom=0;right=0;pointerEvents=1;fontSize=16;" vertex="1" parent="R_btmFy2LlRhvHQ2iQoU-158">
          <mxGeometry width="157" height="44" as="geometry">
            <mxRectangle width="157" height="44" as="alternateBounds" />
          </mxGeometry>
        </mxCell>
        <mxCell id="R_btmFy2LlRhvHQ2iQoU-160" value="INT" style="shape=partialRectangle;html=1;whiteSpace=wrap;connectable=0;strokeColor=inherit;overflow=hidden;fillColor=none;top=0;left=0;bottom=0;right=0;pointerEvents=1;fontSize=16;" vertex="1" parent="R_btmFy2LlRhvHQ2iQoU-158">
          <mxGeometry x="157" width="113" height="44" as="geometry">
            <mxRectangle width="113" height="44" as="alternateBounds" />
          </mxGeometry>
        </mxCell>
        <mxCell id="R_btmFy2LlRhvHQ2iQoU-161" value="REFERENCES Classes(class_id)" style="shape=partialRectangle;html=1;whiteSpace=wrap;connectable=0;strokeColor=inherit;overflow=hidden;fillColor=none;top=0;left=0;bottom=0;right=0;pointerEvents=1;fontSize=16;" vertex="1" parent="R_btmFy2LlRhvHQ2iQoU-158">
          <mxGeometry x="270" width="151" height="44" as="geometry">
            <mxRectangle width="151" height="44" as="alternateBounds" />
          </mxGeometry>
        </mxCell>
        <mxCell id="R_btmFy2LlRhvHQ2iQoU-162" value="" style="shape=tableRow;horizontal=0;startSize=0;swimlaneHead=0;swimlaneBody=0;strokeColor=inherit;top=0;left=0;bottom=0;right=0;collapsible=0;dropTarget=0;fillColor=none;points=[[0,0.5],[1,0.5]];portConstraint=eastwest;fontSize=16;" vertex="1" parent="R_btmFy2LlRhvHQ2iQoU-145">
          <mxGeometry y="191" width="421" height="29" as="geometry" />
        </mxCell>
        <mxCell id="R_btmFy2LlRhvHQ2iQoU-163" value="&lt;span style=&quot;color: rgb(31, 35, 40); font-family: -apple-system, BlinkMacSystemFont, &amp;quot;Segoe UI&amp;quot;, &amp;quot;Noto Sans&amp;quot;, Helvetica, Arial, sans-serif, &amp;quot;Apple Color Emoji&amp;quot;, &amp;quot;Segoe UI Emoji&amp;quot;; text-align: start; background-color: rgb(255, 255, 255);&quot;&gt;date&lt;/span&gt;" style="shape=partialRectangle;html=1;whiteSpace=wrap;connectable=0;strokeColor=inherit;overflow=hidden;fillColor=none;top=0;left=0;bottom=0;right=0;pointerEvents=1;fontSize=16;" vertex="1" parent="R_btmFy2LlRhvHQ2iQoU-162">
          <mxGeometry width="157" height="29" as="geometry">
            <mxRectangle width="157" height="29" as="alternateBounds" />
          </mxGeometry>
        </mxCell>
        <mxCell id="R_btmFy2LlRhvHQ2iQoU-164" value="DATE" style="shape=partialRectangle;html=1;whiteSpace=wrap;connectable=0;strokeColor=inherit;overflow=hidden;fillColor=none;top=0;left=0;bottom=0;right=0;pointerEvents=1;fontSize=16;" vertex="1" parent="R_btmFy2LlRhvHQ2iQoU-162">
          <mxGeometry x="157" width="113" height="29" as="geometry">
            <mxRectangle width="113" height="29" as="alternateBounds" />
          </mxGeometry>
        </mxCell>
        <mxCell id="R_btmFy2LlRhvHQ2iQoU-165" value="" style="shape=partialRectangle;html=1;whiteSpace=wrap;connectable=0;strokeColor=inherit;overflow=hidden;fillColor=none;top=0;left=0;bottom=0;right=0;pointerEvents=1;fontSize=16;" vertex="1" parent="R_btmFy2LlRhvHQ2iQoU-162">
          <mxGeometry x="270" width="151" height="29" as="geometry">
            <mxRectangle width="151" height="29" as="alternateBounds" />
          </mxGeometry>
        </mxCell>
        <mxCell id="R_btmFy2LlRhvHQ2iQoU-166" value="" style="shape=tableRow;horizontal=0;startSize=0;swimlaneHead=0;swimlaneBody=0;strokeColor=inherit;top=0;left=0;bottom=0;right=0;collapsible=0;dropTarget=0;fillColor=none;points=[[0,0.5],[1,0.5]];portConstraint=eastwest;fontSize=16;" vertex="1" parent="R_btmFy2LlRhvHQ2iQoU-145">
          <mxGeometry y="220" width="421" height="20" as="geometry" />
        </mxCell>
        <mxCell id="R_btmFy2LlRhvHQ2iQoU-167" value="&lt;span style=&quot;color: rgb(31, 35, 40); font-family: -apple-system, BlinkMacSystemFont, &amp;quot;Segoe UI&amp;quot;, &amp;quot;Noto Sans&amp;quot;, Helvetica, Arial, sans-serif, &amp;quot;Apple Color Emoji&amp;quot;, &amp;quot;Segoe UI Emoji&amp;quot;; text-align: start; background-color: rgb(246, 248, 250);&quot;&gt;status&lt;/span&gt;" style="shape=partialRectangle;html=1;whiteSpace=wrap;connectable=0;strokeColor=inherit;overflow=hidden;fillColor=none;top=0;left=0;bottom=0;right=0;pointerEvents=1;fontSize=16;" vertex="1" parent="R_btmFy2LlRhvHQ2iQoU-166">
          <mxGeometry width="157" height="20" as="geometry">
            <mxRectangle width="157" height="20" as="alternateBounds" />
          </mxGeometry>
        </mxCell>
        <mxCell id="R_btmFy2LlRhvHQ2iQoU-168" value="&lt;span style=&quot;color: rgb(31, 35, 40); font-family: -apple-system, BlinkMacSystemFont, &amp;quot;Segoe UI&amp;quot;, &amp;quot;Noto Sans&amp;quot;, Helvetica, Arial, sans-serif, &amp;quot;Apple Color Emoji&amp;quot;, &amp;quot;Segoe UI Emoji&amp;quot;; text-align: start; background-color: rgb(246, 248, 250);&quot;&gt;VARCHAR(10)&lt;/span&gt;" style="shape=partialRectangle;html=1;whiteSpace=wrap;connectable=0;strokeColor=inherit;overflow=hidden;fillColor=none;top=0;left=0;bottom=0;right=0;pointerEvents=1;fontSize=16;" vertex="1" parent="R_btmFy2LlRhvHQ2iQoU-166">
          <mxGeometry x="157" width="113" height="20" as="geometry">
            <mxRectangle width="113" height="20" as="alternateBounds" />
          </mxGeometry>
        </mxCell>
        <mxCell id="R_btmFy2LlRhvHQ2iQoU-169" value="" style="shape=partialRectangle;html=1;whiteSpace=wrap;connectable=0;strokeColor=inherit;overflow=hidden;fillColor=none;top=0;left=0;bottom=0;right=0;pointerEvents=1;fontSize=16;" vertex="1" parent="R_btmFy2LlRhvHQ2iQoU-166">
          <mxGeometry x="270" width="151" height="20" as="geometry">
            <mxRectangle width="151" height="20" as="alternateBounds" />
          </mxGeometry>
        </mxCell>
        <mxCell id="R_btmFy2LlRhvHQ2iQoU-174" value="Donors" style="shape=table;startSize=24;container=1;collapsible=0;childLayout=tableLayout;strokeColor=default;fontSize=16;" vertex="1" parent="1">
          <mxGeometry x="-760" y="40" width="450" height="256" as="geometry" />
        </mxCell>
        <mxCell id="R_btmFy2LlRhvHQ2iQoU-175" value="" style="shape=tableRow;horizontal=0;startSize=0;swimlaneHead=0;swimlaneBody=0;strokeColor=inherit;top=0;left=0;bottom=0;right=0;collapsible=0;dropTarget=0;fillColor=none;points=[[0,0.5],[1,0.5]];portConstraint=eastwest;fontSize=16;" vertex="1" parent="R_btmFy2LlRhvHQ2iQoU-174">
          <mxGeometry y="24" width="450" height="25" as="geometry" />
        </mxCell>
        <mxCell id="R_btmFy2LlRhvHQ2iQoU-176" value="FIELD" style="shape=partialRectangle;html=1;whiteSpace=wrap;connectable=0;strokeColor=inherit;overflow=hidden;fillColor=none;top=0;left=0;bottom=0;right=0;pointerEvents=1;fontSize=16;" vertex="1" parent="R_btmFy2LlRhvHQ2iQoU-175">
          <mxGeometry width="115" height="25" as="geometry">
            <mxRectangle width="115" height="25" as="alternateBounds" />
          </mxGeometry>
        </mxCell>
        <mxCell id="R_btmFy2LlRhvHQ2iQoU-177" value="DATA TYPE" style="shape=partialRectangle;html=1;whiteSpace=wrap;connectable=0;strokeColor=inherit;overflow=hidden;fillColor=none;top=0;left=0;bottom=0;right=0;pointerEvents=1;fontSize=16;" vertex="1" parent="R_btmFy2LlRhvHQ2iQoU-175">
          <mxGeometry x="115" width="112" height="25" as="geometry">
            <mxRectangle width="112" height="25" as="alternateBounds" />
          </mxGeometry>
        </mxCell>
        <mxCell id="R_btmFy2LlRhvHQ2iQoU-178" value="CONSTRAINTS" style="shape=partialRectangle;html=1;whiteSpace=wrap;connectable=0;strokeColor=inherit;overflow=hidden;fillColor=none;top=0;left=0;bottom=0;right=0;pointerEvents=1;fontSize=16;" vertex="1" parent="R_btmFy2LlRhvHQ2iQoU-175">
          <mxGeometry x="227" width="223" height="25" as="geometry">
            <mxRectangle width="223" height="25" as="alternateBounds" />
          </mxGeometry>
        </mxCell>
        <mxCell id="R_btmFy2LlRhvHQ2iQoU-179" value="" style="shape=tableRow;horizontal=0;startSize=0;swimlaneHead=0;swimlaneBody=0;strokeColor=inherit;top=0;left=0;bottom=0;right=0;collapsible=0;dropTarget=0;fillColor=none;points=[[0,0.5],[1,0.5]];portConstraint=eastwest;fontSize=16;" vertex="1" parent="R_btmFy2LlRhvHQ2iQoU-174">
          <mxGeometry y="49" width="450" height="48" as="geometry" />
        </mxCell>
        <mxCell id="R_btmFy2LlRhvHQ2iQoU-180" value="&lt;span style=&quot;color: rgb(31, 35, 40); font-family: -apple-system, BlinkMacSystemFont, &amp;quot;Segoe UI&amp;quot;, &amp;quot;Noto Sans&amp;quot;, Helvetica, Arial, sans-serif, &amp;quot;Apple Color Emoji&amp;quot;, &amp;quot;Segoe UI Emoji&amp;quot;; text-align: start; background-color: rgb(255, 255, 255);&quot;&gt;donor_id&lt;/span&gt;" style="shape=partialRectangle;html=1;whiteSpace=wrap;connectable=0;strokeColor=inherit;overflow=hidden;fillColor=none;top=0;left=0;bottom=0;right=0;pointerEvents=1;fontSize=16;" vertex="1" parent="R_btmFy2LlRhvHQ2iQoU-179">
          <mxGeometry width="115" height="48" as="geometry">
            <mxRectangle width="115" height="48" as="alternateBounds" />
          </mxGeometry>
        </mxCell>
        <mxCell id="R_btmFy2LlRhvHQ2iQoU-181" value="&lt;font style=&quot;font-size: 14px;&quot;&gt;INT&lt;/font&gt;" style="shape=partialRectangle;html=1;whiteSpace=wrap;connectable=0;strokeColor=inherit;overflow=hidden;fillColor=none;top=0;left=0;bottom=0;right=0;pointerEvents=1;fontSize=16;" vertex="1" parent="R_btmFy2LlRhvHQ2iQoU-179">
          <mxGeometry x="115" width="112" height="48" as="geometry">
            <mxRectangle width="112" height="48" as="alternateBounds" />
          </mxGeometry>
        </mxCell>
        <mxCell id="R_btmFy2LlRhvHQ2iQoU-182" value="&lt;span style=&quot;color: rgb(31, 35, 40); font-family: -apple-system, BlinkMacSystemFont, &amp;quot;Segoe UI&amp;quot;, &amp;quot;Noto Sans&amp;quot;, Helvetica, Arial, sans-serif, &amp;quot;Apple Color Emoji&amp;quot;, &amp;quot;Segoe UI Emoji&amp;quot;; text-align: start; background-color: rgb(255, 255, 255);&quot;&gt;PRIMARY KEY, AUTO_INCREMENT&lt;/span&gt;" style="shape=partialRectangle;html=1;whiteSpace=wrap;connectable=0;strokeColor=inherit;overflow=hidden;fillColor=none;top=0;left=0;bottom=0;right=0;pointerEvents=1;fontSize=16;" vertex="1" parent="R_btmFy2LlRhvHQ2iQoU-179">
          <mxGeometry x="227" width="223" height="48" as="geometry">
            <mxRectangle width="223" height="48" as="alternateBounds" />
          </mxGeometry>
        </mxCell>
        <mxCell id="R_btmFy2LlRhvHQ2iQoU-183" value="" style="shape=tableRow;horizontal=0;startSize=0;swimlaneHead=0;swimlaneBody=0;strokeColor=inherit;top=0;left=0;bottom=0;right=0;collapsible=0;dropTarget=0;fillColor=none;points=[[0,0.5],[1,0.5]];portConstraint=eastwest;fontSize=16;" vertex="1" parent="R_btmFy2LlRhvHQ2iQoU-174">
          <mxGeometry y="97" width="450" height="38" as="geometry" />
        </mxCell>
        <mxCell id="R_btmFy2LlRhvHQ2iQoU-184" value="&lt;div style=&quot;text-align: start;&quot;&gt;&lt;font face=&quot;-apple-system, BlinkMacSystemFont, Segoe UI, Noto Sans, Helvetica, Arial, sans-serif, Apple Color Emoji, Segoe UI Emoji&quot; color=&quot;#1f2328&quot;&gt;&lt;span style=&quot;background-color: rgb(246, 248, 250);&quot;&gt;first_name&lt;/span&gt;&lt;/font&gt;&lt;/div&gt;" style="shape=partialRectangle;html=1;whiteSpace=wrap;connectable=0;strokeColor=inherit;overflow=hidden;fillColor=none;top=0;left=0;bottom=0;right=0;pointerEvents=1;fontSize=16;" vertex="1" parent="R_btmFy2LlRhvHQ2iQoU-183">
          <mxGeometry width="115" height="38" as="geometry">
            <mxRectangle width="115" height="38" as="alternateBounds" />
          </mxGeometry>
        </mxCell>
        <mxCell id="R_btmFy2LlRhvHQ2iQoU-185" value="&lt;font style=&quot;font-size: 14px;&quot;&gt;VARCHAR&lt;/font&gt;" style="shape=partialRectangle;html=1;whiteSpace=wrap;connectable=0;strokeColor=inherit;overflow=hidden;fillColor=none;top=0;left=0;bottom=0;right=0;pointerEvents=1;fontSize=16;" vertex="1" parent="R_btmFy2LlRhvHQ2iQoU-183">
          <mxGeometry x="115" width="112" height="38" as="geometry">
            <mxRectangle width="112" height="38" as="alternateBounds" />
          </mxGeometry>
        </mxCell>
        <mxCell id="R_btmFy2LlRhvHQ2iQoU-186" value="" style="shape=partialRectangle;html=1;whiteSpace=wrap;connectable=0;strokeColor=inherit;overflow=hidden;fillColor=none;top=0;left=0;bottom=0;right=0;pointerEvents=1;fontSize=16;" vertex="1" parent="R_btmFy2LlRhvHQ2iQoU-183">
          <mxGeometry x="227" width="223" height="38" as="geometry">
            <mxRectangle width="223" height="38" as="alternateBounds" />
          </mxGeometry>
        </mxCell>
        <mxCell id="R_btmFy2LlRhvHQ2iQoU-187" value="" style="shape=tableRow;horizontal=0;startSize=0;swimlaneHead=0;swimlaneBody=0;strokeColor=inherit;top=0;left=0;bottom=0;right=0;collapsible=0;dropTarget=0;fillColor=none;points=[[0,0.5],[1,0.5]];portConstraint=eastwest;fontSize=16;" vertex="1" parent="R_btmFy2LlRhvHQ2iQoU-174">
          <mxGeometry y="135" width="450" height="31" as="geometry" />
        </mxCell>
        <mxCell id="R_btmFy2LlRhvHQ2iQoU-188" value="&lt;span style=&quot;color: rgb(31, 35, 40); font-family: -apple-system, BlinkMacSystemFont, &amp;quot;Segoe UI&amp;quot;, &amp;quot;Noto Sans&amp;quot;, Helvetica, Arial, sans-serif, &amp;quot;Apple Color Emoji&amp;quot;, &amp;quot;Segoe UI Emoji&amp;quot;; text-align: start; background-color: rgb(255, 255, 255);&quot;&gt;last_name&lt;/span&gt;" style="shape=partialRectangle;html=1;whiteSpace=wrap;connectable=0;strokeColor=inherit;overflow=hidden;fillColor=none;top=0;left=0;bottom=0;right=0;pointerEvents=1;fontSize=16;" vertex="1" parent="R_btmFy2LlRhvHQ2iQoU-187">
          <mxGeometry width="115" height="31" as="geometry">
            <mxRectangle width="115" height="31" as="alternateBounds" />
          </mxGeometry>
        </mxCell>
        <mxCell id="R_btmFy2LlRhvHQ2iQoU-189" value="&lt;font style=&quot;font-size: 14px;&quot;&gt;VARCHAR&lt;/font&gt;" style="shape=partialRectangle;html=1;whiteSpace=wrap;connectable=0;strokeColor=inherit;overflow=hidden;fillColor=none;top=0;left=0;bottom=0;right=0;pointerEvents=1;fontSize=16;" vertex="1" parent="R_btmFy2LlRhvHQ2iQoU-187">
          <mxGeometry x="115" width="112" height="31" as="geometry">
            <mxRectangle width="112" height="31" as="alternateBounds" />
          </mxGeometry>
        </mxCell>
        <mxCell id="R_btmFy2LlRhvHQ2iQoU-190" value="" style="shape=partialRectangle;html=1;whiteSpace=wrap;connectable=0;strokeColor=inherit;overflow=hidden;fillColor=none;top=0;left=0;bottom=0;right=0;pointerEvents=1;fontSize=16;" vertex="1" parent="R_btmFy2LlRhvHQ2iQoU-187">
          <mxGeometry x="227" width="223" height="31" as="geometry">
            <mxRectangle width="223" height="31" as="alternateBounds" />
          </mxGeometry>
        </mxCell>
        <mxCell id="R_btmFy2LlRhvHQ2iQoU-191" value="" style="shape=tableRow;horizontal=0;startSize=0;swimlaneHead=0;swimlaneBody=0;strokeColor=inherit;top=0;left=0;bottom=0;right=0;collapsible=0;dropTarget=0;fillColor=none;points=[[0,0.5],[1,0.5]];portConstraint=eastwest;fontSize=16;" vertex="1" parent="R_btmFy2LlRhvHQ2iQoU-174">
          <mxGeometry y="166" width="450" height="34" as="geometry" />
        </mxCell>
        <mxCell id="R_btmFy2LlRhvHQ2iQoU-192" value="&lt;span style=&quot;color: rgb(31, 35, 40); font-family: -apple-system, BlinkMacSystemFont, &amp;quot;Segoe UI&amp;quot;, &amp;quot;Noto Sans&amp;quot;, Helvetica, Arial, sans-serif, &amp;quot;Apple Color Emoji&amp;quot;, &amp;quot;Segoe UI Emoji&amp;quot;; text-align: start; background-color: rgb(246, 248, 250);&quot;&gt;email&lt;/span&gt;" style="shape=partialRectangle;html=1;whiteSpace=wrap;connectable=0;strokeColor=inherit;overflow=hidden;fillColor=none;top=0;left=0;bottom=0;right=0;pointerEvents=1;fontSize=16;" vertex="1" parent="R_btmFy2LlRhvHQ2iQoU-191">
          <mxGeometry width="115" height="34" as="geometry">
            <mxRectangle width="115" height="34" as="alternateBounds" />
          </mxGeometry>
        </mxCell>
        <mxCell id="R_btmFy2LlRhvHQ2iQoU-193" value="&lt;font style=&quot;font-size: 14px;&quot;&gt;VARCHAR&lt;/font&gt;" style="shape=partialRectangle;html=1;whiteSpace=wrap;connectable=0;strokeColor=inherit;overflow=hidden;fillColor=none;top=0;left=0;bottom=0;right=0;pointerEvents=1;fontSize=16;" vertex="1" parent="R_btmFy2LlRhvHQ2iQoU-191">
          <mxGeometry x="115" width="112" height="34" as="geometry">
            <mxRectangle width="112" height="34" as="alternateBounds" />
          </mxGeometry>
        </mxCell>
        <mxCell id="R_btmFy2LlRhvHQ2iQoU-194" value="" style="shape=partialRectangle;html=1;whiteSpace=wrap;connectable=0;strokeColor=inherit;overflow=hidden;fillColor=none;top=0;left=0;bottom=0;right=0;pointerEvents=1;fontSize=16;" vertex="1" parent="R_btmFy2LlRhvHQ2iQoU-191">
          <mxGeometry x="227" width="223" height="34" as="geometry">
            <mxRectangle width="223" height="34" as="alternateBounds" />
          </mxGeometry>
        </mxCell>
        <mxCell id="R_btmFy2LlRhvHQ2iQoU-195" value="" style="shape=tableRow;horizontal=0;startSize=0;swimlaneHead=0;swimlaneBody=0;strokeColor=inherit;top=0;left=0;bottom=0;right=0;collapsible=0;dropTarget=0;fillColor=none;points=[[0,0.5],[1,0.5]];portConstraint=eastwest;fontSize=16;" vertex="1" parent="R_btmFy2LlRhvHQ2iQoU-174">
          <mxGeometry y="200" width="450" height="27" as="geometry" />
        </mxCell>
        <mxCell id="R_btmFy2LlRhvHQ2iQoU-196" value="&lt;span style=&quot;color: rgb(31, 35, 40); font-family: -apple-system, BlinkMacSystemFont, &amp;quot;Segoe UI&amp;quot;, &amp;quot;Noto Sans&amp;quot;, Helvetica, Arial, sans-serif, &amp;quot;Apple Color Emoji&amp;quot;, &amp;quot;Segoe UI Emoji&amp;quot;; text-align: start; background-color: rgb(255, 255, 255);&quot;&gt;phone_number&lt;/span&gt;" style="shape=partialRectangle;html=1;whiteSpace=wrap;connectable=0;strokeColor=inherit;overflow=hidden;fillColor=none;top=0;left=0;bottom=0;right=0;pointerEvents=1;fontSize=16;" vertex="1" parent="R_btmFy2LlRhvHQ2iQoU-195">
          <mxGeometry width="115" height="27" as="geometry">
            <mxRectangle width="115" height="27" as="alternateBounds" />
          </mxGeometry>
        </mxCell>
        <mxCell id="R_btmFy2LlRhvHQ2iQoU-197" value="&lt;font style=&quot;font-size: 14px;&quot;&gt;VARCHAR(255)&lt;/font&gt;" style="shape=partialRectangle;html=1;whiteSpace=wrap;connectable=0;strokeColor=inherit;overflow=hidden;fillColor=none;top=0;left=0;bottom=0;right=0;pointerEvents=1;fontSize=16;" vertex="1" parent="R_btmFy2LlRhvHQ2iQoU-195">
          <mxGeometry x="115" width="112" height="27" as="geometry">
            <mxRectangle width="112" height="27" as="alternateBounds" />
          </mxGeometry>
        </mxCell>
        <mxCell id="R_btmFy2LlRhvHQ2iQoU-198" value="" style="shape=partialRectangle;html=1;whiteSpace=wrap;connectable=0;strokeColor=inherit;overflow=hidden;fillColor=none;top=0;left=0;bottom=0;right=0;pointerEvents=1;fontSize=16;" vertex="1" parent="R_btmFy2LlRhvHQ2iQoU-195">
          <mxGeometry x="227" width="223" height="27" as="geometry">
            <mxRectangle width="223" height="27" as="alternateBounds" />
          </mxGeometry>
        </mxCell>
        <mxCell id="R_btmFy2LlRhvHQ2iQoU-199" value="" style="shape=tableRow;horizontal=0;startSize=0;swimlaneHead=0;swimlaneBody=0;strokeColor=inherit;top=0;left=0;bottom=0;right=0;collapsible=0;dropTarget=0;fillColor=none;points=[[0,0.5],[1,0.5]];portConstraint=eastwest;fontSize=16;" vertex="1" parent="R_btmFy2LlRhvHQ2iQoU-174">
          <mxGeometry y="227" width="450" height="29" as="geometry" />
        </mxCell>
        <mxCell id="R_btmFy2LlRhvHQ2iQoU-200" value="&lt;span style=&quot;color: rgb(31, 35, 40); font-family: -apple-system, BlinkMacSystemFont, &amp;quot;Segoe UI&amp;quot;, &amp;quot;Noto Sans&amp;quot;, Helvetica, Arial, sans-serif, &amp;quot;Apple Color Emoji&amp;quot;, &amp;quot;Segoe UI Emoji&amp;quot;; text-align: start; background-color: rgb(246, 248, 250);&quot;&gt;address&lt;/span&gt;" style="shape=partialRectangle;html=1;whiteSpace=wrap;connectable=0;strokeColor=inherit;overflow=hidden;fillColor=none;top=0;left=0;bottom=0;right=0;pointerEvents=1;fontSize=16;" vertex="1" parent="R_btmFy2LlRhvHQ2iQoU-199">
          <mxGeometry width="115" height="29" as="geometry">
            <mxRectangle width="115" height="29" as="alternateBounds" />
          </mxGeometry>
        </mxCell>
        <mxCell id="R_btmFy2LlRhvHQ2iQoU-201" value="&lt;font style=&quot;font-size: 14px;&quot;&gt;TEXT&lt;/font&gt;" style="shape=partialRectangle;html=1;whiteSpace=wrap;connectable=0;strokeColor=inherit;overflow=hidden;fillColor=none;top=0;left=0;bottom=0;right=0;pointerEvents=1;fontSize=16;" vertex="1" parent="R_btmFy2LlRhvHQ2iQoU-199">
          <mxGeometry x="115" width="112" height="29" as="geometry">
            <mxRectangle width="112" height="29" as="alternateBounds" />
          </mxGeometry>
        </mxCell>
        <mxCell id="R_btmFy2LlRhvHQ2iQoU-202" value="" style="shape=partialRectangle;html=1;whiteSpace=wrap;connectable=0;strokeColor=inherit;overflow=hidden;fillColor=none;top=0;left=0;bottom=0;right=0;pointerEvents=1;fontSize=16;" vertex="1" parent="R_btmFy2LlRhvHQ2iQoU-199">
          <mxGeometry x="227" width="223" height="29" as="geometry">
            <mxRectangle width="223" height="29" as="alternateBounds" />
          </mxGeometry>
        </mxCell>
        <mxCell id="R_btmFy2LlRhvHQ2iQoU-203" value="" style="endArrow=none;html=1;rounded=0;" edge="1" parent="1">
          <mxGeometry relative="1" as="geometry">
            <mxPoint y="470" as="sourcePoint" />
            <mxPoint x="-70" y="870" as="targetPoint" />
            <Array as="points">
              <mxPoint x="-70" y="470" />
              <mxPoint x="-70" y="870" />
              <mxPoint y="870" />
            </Array>
          </mxGeometry>
        </mxCell>
        <mxCell id="R_btmFy2LlRhvHQ2iQoU-206" value="" style="endArrow=none;html=1;rounded=0;" edge="1" parent="1">
          <mxGeometry relative="1" as="geometry">
            <mxPoint x="547" y="135" as="sourcePoint" />
            <mxPoint x="377" y="135" as="targetPoint" />
            <Array as="points" />
          </mxGeometry>
        </mxCell>
        <mxCell id="R_btmFy2LlRhvHQ2iQoU-209" value="Grade" style="shape=table;startSize=30;container=1;collapsible=0;childLayout=tableLayout;strokeColor=default;fontSize=16;" vertex="1" parent="1">
          <mxGeometry y="780" width="410" height="259.5" as="geometry" />
        </mxCell>
        <mxCell id="R_btmFy2LlRhvHQ2iQoU-210" value="" style="shape=tableRow;horizontal=0;startSize=0;swimlaneHead=0;swimlaneBody=0;strokeColor=inherit;top=0;left=0;bottom=0;right=0;collapsible=0;dropTarget=0;fillColor=none;points=[[0,0.5],[1,0.5]];portConstraint=eastwest;fontSize=16;" vertex="1" parent="R_btmFy2LlRhvHQ2iQoU-209">
          <mxGeometry y="30" width="410" height="33" as="geometry" />
        </mxCell>
        <mxCell id="R_btmFy2LlRhvHQ2iQoU-211" value="FIELD" style="shape=partialRectangle;html=1;whiteSpace=wrap;connectable=0;strokeColor=inherit;overflow=hidden;fillColor=none;top=0;left=0;bottom=0;right=0;pointerEvents=1;fontSize=16;" vertex="1" parent="R_btmFy2LlRhvHQ2iQoU-210">
          <mxGeometry width="144" height="33" as="geometry">
            <mxRectangle width="144" height="33" as="alternateBounds" />
          </mxGeometry>
        </mxCell>
        <mxCell id="R_btmFy2LlRhvHQ2iQoU-212" value="DATA TYPE" style="shape=partialRectangle;html=1;whiteSpace=wrap;connectable=0;strokeColor=inherit;overflow=hidden;fillColor=none;top=0;left=0;bottom=0;right=0;pointerEvents=1;fontSize=16;" vertex="1" parent="R_btmFy2LlRhvHQ2iQoU-210">
          <mxGeometry x="144" width="114" height="33" as="geometry">
            <mxRectangle width="114" height="33" as="alternateBounds" />
          </mxGeometry>
        </mxCell>
        <mxCell id="R_btmFy2LlRhvHQ2iQoU-213" value="CONSTRAINTS" style="shape=partialRectangle;html=1;whiteSpace=wrap;connectable=0;strokeColor=inherit;overflow=hidden;fillColor=none;top=0;left=0;bottom=0;right=0;pointerEvents=1;fontSize=16;" vertex="1" parent="R_btmFy2LlRhvHQ2iQoU-210">
          <mxGeometry x="258" width="152" height="33" as="geometry">
            <mxRectangle width="152" height="33" as="alternateBounds" />
          </mxGeometry>
        </mxCell>
        <mxCell id="R_btmFy2LlRhvHQ2iQoU-214" value="" style="shape=tableRow;horizontal=0;startSize=0;swimlaneHead=0;swimlaneBody=0;strokeColor=inherit;top=0;left=0;bottom=0;right=0;collapsible=0;dropTarget=0;fillColor=none;points=[[0,0.5],[1,0.5]];portConstraint=eastwest;fontSize=16;" vertex="1" parent="R_btmFy2LlRhvHQ2iQoU-209">
          <mxGeometry y="63" width="410" height="42" as="geometry" />
        </mxCell>
        <mxCell id="R_btmFy2LlRhvHQ2iQoU-215" value="grade_id" style="shape=partialRectangle;html=1;whiteSpace=wrap;connectable=0;strokeColor=inherit;overflow=hidden;fillColor=none;top=0;left=0;bottom=0;right=0;pointerEvents=1;fontSize=16;" vertex="1" parent="R_btmFy2LlRhvHQ2iQoU-214">
          <mxGeometry width="144" height="42" as="geometry">
            <mxRectangle width="144" height="42" as="alternateBounds" />
          </mxGeometry>
        </mxCell>
        <mxCell id="R_btmFy2LlRhvHQ2iQoU-216" value="INT" style="shape=partialRectangle;html=1;whiteSpace=wrap;connectable=0;strokeColor=inherit;overflow=hidden;fillColor=none;top=0;left=0;bottom=0;right=0;pointerEvents=1;fontSize=16;" vertex="1" parent="R_btmFy2LlRhvHQ2iQoU-214">
          <mxGeometry x="144" width="114" height="42" as="geometry">
            <mxRectangle width="114" height="42" as="alternateBounds" />
          </mxGeometry>
        </mxCell>
        <mxCell id="R_btmFy2LlRhvHQ2iQoU-217" value="&lt;font style=&quot;font-size: 14px;&quot;&gt;PRIMARY KEY, AUTO_INCREMENT&lt;/font&gt;" style="shape=partialRectangle;html=1;whiteSpace=wrap;connectable=0;strokeColor=inherit;overflow=hidden;fillColor=none;top=0;left=0;bottom=0;right=0;pointerEvents=1;fontSize=16;" vertex="1" parent="R_btmFy2LlRhvHQ2iQoU-214">
          <mxGeometry x="258" width="152" height="42" as="geometry">
            <mxRectangle width="152" height="42" as="alternateBounds" />
          </mxGeometry>
        </mxCell>
        <mxCell id="R_btmFy2LlRhvHQ2iQoU-218" value="" style="shape=tableRow;horizontal=0;startSize=0;swimlaneHead=0;swimlaneBody=0;strokeColor=inherit;top=0;left=0;bottom=0;right=0;collapsible=0;dropTarget=0;fillColor=none;points=[[0,0.5],[1,0.5]];portConstraint=eastwest;fontSize=16;" vertex="1" parent="R_btmFy2LlRhvHQ2iQoU-209">
          <mxGeometry y="105" width="410" height="47" as="geometry" />
        </mxCell>
        <mxCell id="R_btmFy2LlRhvHQ2iQoU-219" value="student_id" style="shape=partialRectangle;html=1;whiteSpace=wrap;connectable=0;strokeColor=inherit;overflow=hidden;fillColor=none;top=0;left=0;bottom=0;right=0;pointerEvents=1;fontSize=16;" vertex="1" parent="R_btmFy2LlRhvHQ2iQoU-218">
          <mxGeometry width="144" height="47" as="geometry">
            <mxRectangle width="144" height="47" as="alternateBounds" />
          </mxGeometry>
        </mxCell>
        <mxCell id="R_btmFy2LlRhvHQ2iQoU-220" value="INT" style="shape=partialRectangle;html=1;whiteSpace=wrap;connectable=0;strokeColor=inherit;overflow=hidden;fillColor=none;top=0;left=0;bottom=0;right=0;pointerEvents=1;fontSize=16;" vertex="1" parent="R_btmFy2LlRhvHQ2iQoU-218">
          <mxGeometry x="144" width="114" height="47" as="geometry">
            <mxRectangle width="114" height="47" as="alternateBounds" />
          </mxGeometry>
        </mxCell>
        <mxCell id="R_btmFy2LlRhvHQ2iQoU-221" value="&lt;font style=&quot;font-size: 14px;&quot;&gt;REFERENCES&lt;/font&gt; Students(student_id)" style="shape=partialRectangle;html=1;whiteSpace=wrap;connectable=0;strokeColor=inherit;overflow=hidden;fillColor=none;top=0;left=0;bottom=0;right=0;pointerEvents=1;fontSize=16;" vertex="1" parent="R_btmFy2LlRhvHQ2iQoU-218">
          <mxGeometry x="258" width="152" height="47" as="geometry">
            <mxRectangle width="152" height="47" as="alternateBounds" />
          </mxGeometry>
        </mxCell>
        <mxCell id="R_btmFy2LlRhvHQ2iQoU-222" value="" style="shape=tableRow;horizontal=0;startSize=0;swimlaneHead=0;swimlaneBody=0;strokeColor=inherit;top=0;left=0;bottom=0;right=0;collapsible=0;dropTarget=0;fillColor=none;points=[[0,0.5],[1,0.5]];portConstraint=eastwest;fontSize=16;" vertex="1" parent="R_btmFy2LlRhvHQ2iQoU-209">
          <mxGeometry y="152" width="410" height="43" as="geometry" />
        </mxCell>
        <mxCell id="R_btmFy2LlRhvHQ2iQoU-223" value="class_id" style="shape=partialRectangle;html=1;whiteSpace=wrap;connectable=0;strokeColor=inherit;overflow=hidden;fillColor=none;top=0;left=0;bottom=0;right=0;pointerEvents=1;fontSize=16;" vertex="1" parent="R_btmFy2LlRhvHQ2iQoU-222">
          <mxGeometry width="144" height="43" as="geometry">
            <mxRectangle width="144" height="43" as="alternateBounds" />
          </mxGeometry>
        </mxCell>
        <mxCell id="R_btmFy2LlRhvHQ2iQoU-224" value="INT" style="shape=partialRectangle;html=1;whiteSpace=wrap;connectable=0;strokeColor=inherit;overflow=hidden;fillColor=none;top=0;left=0;bottom=0;right=0;pointerEvents=1;fontSize=16;" vertex="1" parent="R_btmFy2LlRhvHQ2iQoU-222">
          <mxGeometry x="144" width="114" height="43" as="geometry">
            <mxRectangle width="114" height="43" as="alternateBounds" />
          </mxGeometry>
        </mxCell>
        <mxCell id="R_btmFy2LlRhvHQ2iQoU-225" value="&lt;font style=&quot;font-size: 14px;&quot;&gt;REFERENCES&lt;/font&gt; Classes(class_id)" style="shape=partialRectangle;html=1;whiteSpace=wrap;connectable=0;strokeColor=inherit;overflow=hidden;fillColor=none;top=0;left=0;bottom=0;right=0;pointerEvents=1;fontSize=16;" vertex="1" parent="R_btmFy2LlRhvHQ2iQoU-222">
          <mxGeometry x="258" width="152" height="43" as="geometry">
            <mxRectangle width="152" height="43" as="alternateBounds" />
          </mxGeometry>
        </mxCell>
        <mxCell id="R_btmFy2LlRhvHQ2iQoU-226" value="" style="shape=tableRow;horizontal=0;startSize=0;swimlaneHead=0;swimlaneBody=0;strokeColor=inherit;top=0;left=0;bottom=0;right=0;collapsible=0;dropTarget=0;fillColor=none;points=[[0,0.5],[1,0.5]];portConstraint=eastwest;fontSize=16;" vertex="1" parent="R_btmFy2LlRhvHQ2iQoU-209">
          <mxGeometry y="195" width="410" height="32" as="geometry" />
        </mxCell>
        <mxCell id="R_btmFy2LlRhvHQ2iQoU-227" value="grade" style="shape=partialRectangle;html=1;whiteSpace=wrap;connectable=0;strokeColor=inherit;overflow=hidden;fillColor=none;top=0;left=0;bottom=0;right=0;pointerEvents=1;fontSize=16;" vertex="1" parent="R_btmFy2LlRhvHQ2iQoU-226">
          <mxGeometry width="144" height="32" as="geometry">
            <mxRectangle width="144" height="32" as="alternateBounds" />
          </mxGeometry>
        </mxCell>
        <mxCell id="R_btmFy2LlRhvHQ2iQoU-228" value="char(2)" style="shape=partialRectangle;html=1;whiteSpace=wrap;connectable=0;strokeColor=inherit;overflow=hidden;fillColor=none;top=0;left=0;bottom=0;right=0;pointerEvents=1;fontSize=16;" vertex="1" parent="R_btmFy2LlRhvHQ2iQoU-226">
          <mxGeometry x="144" width="114" height="32" as="geometry">
            <mxRectangle width="114" height="32" as="alternateBounds" />
          </mxGeometry>
        </mxCell>
        <mxCell id="R_btmFy2LlRhvHQ2iQoU-229" value="" style="shape=partialRectangle;html=1;whiteSpace=wrap;connectable=0;strokeColor=inherit;overflow=hidden;fillColor=none;top=0;left=0;bottom=0;right=0;pointerEvents=1;fontSize=16;" vertex="1" parent="R_btmFy2LlRhvHQ2iQoU-226">
          <mxGeometry x="258" width="152" height="32" as="geometry">
            <mxRectangle width="152" height="32" as="alternateBounds" />
          </mxGeometry>
        </mxCell>
        <mxCell id="R_btmFy2LlRhvHQ2iQoU-230" value="" style="shape=tableRow;horizontal=0;startSize=0;swimlaneHead=0;swimlaneBody=0;strokeColor=inherit;top=0;left=0;bottom=0;right=0;collapsible=0;dropTarget=0;fillColor=none;points=[[0,0.5],[1,0.5]];portConstraint=eastwest;fontSize=16;" vertex="1" parent="R_btmFy2LlRhvHQ2iQoU-209">
          <mxGeometry y="227" width="410" height="33" as="geometry" />
        </mxCell>
        <mxCell id="R_btmFy2LlRhvHQ2iQoU-231" value="date_recorded" style="shape=partialRectangle;html=1;whiteSpace=wrap;connectable=0;strokeColor=inherit;overflow=hidden;fillColor=none;top=0;left=0;bottom=0;right=0;pointerEvents=1;fontSize=16;" vertex="1" parent="R_btmFy2LlRhvHQ2iQoU-230">
          <mxGeometry width="144" height="33" as="geometry">
            <mxRectangle width="144" height="33" as="alternateBounds" />
          </mxGeometry>
        </mxCell>
        <mxCell id="R_btmFy2LlRhvHQ2iQoU-232" value="&lt;font style=&quot;font-size: 14px;&quot;&gt;DATE&lt;/font&gt;" style="shape=partialRectangle;html=1;whiteSpace=wrap;connectable=0;strokeColor=inherit;overflow=hidden;fillColor=none;top=0;left=0;bottom=0;right=0;pointerEvents=1;fontSize=16;" vertex="1" parent="R_btmFy2LlRhvHQ2iQoU-230">
          <mxGeometry x="144" width="114" height="33" as="geometry">
            <mxRectangle width="114" height="33" as="alternateBounds" />
          </mxGeometry>
        </mxCell>
        <mxCell id="R_btmFy2LlRhvHQ2iQoU-233" value="" style="shape=partialRectangle;html=1;whiteSpace=wrap;connectable=0;strokeColor=inherit;overflow=hidden;fillColor=none;top=0;left=0;bottom=0;right=0;pointerEvents=1;fontSize=16;" vertex="1" parent="R_btmFy2LlRhvHQ2iQoU-230">
          <mxGeometry x="258" width="152" height="33" as="geometry">
            <mxRectangle width="152" height="33" as="alternateBounds" />
          </mxGeometry>
        </mxCell>
        <mxCell id="R_btmFy2LlRhvHQ2iQoU-244" value="" style="endArrow=none;html=1;rounded=0;" edge="1" parent="1">
          <mxGeometry relative="1" as="geometry">
            <mxPoint x="540" y="152" as="sourcePoint" />
            <mxPoint x="450" y="870" as="targetPoint" />
            <Array as="points">
              <mxPoint x="440" y="152" />
              <mxPoint x="450" y="870" />
              <mxPoint x="410" y="870" />
            </Array>
          </mxGeometry>
        </mxCell>
        <mxCell id="R_btmFy2LlRhvHQ2iQoU-245" value="" style="endArrow=none;html=1;rounded=0;" edge="1" parent="1">
          <mxGeometry relative="1" as="geometry">
            <mxPoint x="557" y="497" as="sourcePoint" />
            <mxPoint x="387" y="497" as="targetPoint" />
            <Array as="points" />
          </mxGeometry>
        </mxCell>
        <mxCell id="R_btmFy2LlRhvHQ2iQoU-246" value="" style="endArrow=none;html=1;rounded=0;" edge="1" parent="1">
          <mxGeometry relative="1" as="geometry">
            <mxPoint x="180" y="230" as="sourcePoint" />
            <mxPoint x="180" y="380" as="targetPoint" />
            <Array as="points" />
          </mxGeometry>
        </mxCell>
        <mxCell id="R_btmFy2LlRhvHQ2iQoU-247" value="Scholarship" style="shape=table;startSize=24;container=1;collapsible=0;childLayout=tableLayout;strokeColor=default;fontSize=16;" vertex="1" parent="1">
          <mxGeometry x="-760" y="490" width="450" height="240" as="geometry" />
        </mxCell>
        <mxCell id="R_btmFy2LlRhvHQ2iQoU-248" value="" style="shape=tableRow;horizontal=0;startSize=0;swimlaneHead=0;swimlaneBody=0;strokeColor=inherit;top=0;left=0;bottom=0;right=0;collapsible=0;dropTarget=0;fillColor=none;points=[[0,0.5],[1,0.5]];portConstraint=eastwest;fontSize=16;" vertex="1" parent="R_btmFy2LlRhvHQ2iQoU-247">
          <mxGeometry y="24" width="450" height="25" as="geometry" />
        </mxCell>
        <mxCell id="R_btmFy2LlRhvHQ2iQoU-249" value="FIELD" style="shape=partialRectangle;html=1;whiteSpace=wrap;connectable=0;strokeColor=inherit;overflow=hidden;fillColor=none;top=0;left=0;bottom=0;right=0;pointerEvents=1;fontSize=16;" vertex="1" parent="R_btmFy2LlRhvHQ2iQoU-248">
          <mxGeometry width="115" height="25" as="geometry">
            <mxRectangle width="115" height="25" as="alternateBounds" />
          </mxGeometry>
        </mxCell>
        <mxCell id="R_btmFy2LlRhvHQ2iQoU-250" value="DATA TYPE" style="shape=partialRectangle;html=1;whiteSpace=wrap;connectable=0;strokeColor=inherit;overflow=hidden;fillColor=none;top=0;left=0;bottom=0;right=0;pointerEvents=1;fontSize=16;" vertex="1" parent="R_btmFy2LlRhvHQ2iQoU-248">
          <mxGeometry x="115" width="112" height="25" as="geometry">
            <mxRectangle width="112" height="25" as="alternateBounds" />
          </mxGeometry>
        </mxCell>
        <mxCell id="R_btmFy2LlRhvHQ2iQoU-251" value="CONSTRAINTS" style="shape=partialRectangle;html=1;whiteSpace=wrap;connectable=0;strokeColor=inherit;overflow=hidden;fillColor=none;top=0;left=0;bottom=0;right=0;pointerEvents=1;fontSize=16;" vertex="1" parent="R_btmFy2LlRhvHQ2iQoU-248">
          <mxGeometry x="227" width="223" height="25" as="geometry">
            <mxRectangle width="223" height="25" as="alternateBounds" />
          </mxGeometry>
        </mxCell>
        <mxCell id="R_btmFy2LlRhvHQ2iQoU-252" value="" style="shape=tableRow;horizontal=0;startSize=0;swimlaneHead=0;swimlaneBody=0;strokeColor=inherit;top=0;left=0;bottom=0;right=0;collapsible=0;dropTarget=0;fillColor=none;points=[[0,0.5],[1,0.5]];portConstraint=eastwest;fontSize=16;" vertex="1" parent="R_btmFy2LlRhvHQ2iQoU-247">
          <mxGeometry y="49" width="450" height="48" as="geometry" />
        </mxCell>
        <mxCell id="R_btmFy2LlRhvHQ2iQoU-253" value="&lt;span style=&quot;color: rgb(31, 35, 40); font-family: -apple-system, BlinkMacSystemFont, &amp;quot;Segoe UI&amp;quot;, &amp;quot;Noto Sans&amp;quot;, Helvetica, Arial, sans-serif, &amp;quot;Apple Color Emoji&amp;quot;, &amp;quot;Segoe UI Emoji&amp;quot;; text-align: start; background-color: rgb(255, 255, 255);&quot;&gt;scholarship_id&lt;/span&gt;" style="shape=partialRectangle;html=1;whiteSpace=wrap;connectable=0;strokeColor=inherit;overflow=hidden;fillColor=none;top=0;left=0;bottom=0;right=0;pointerEvents=1;fontSize=16;" vertex="1" parent="R_btmFy2LlRhvHQ2iQoU-252">
          <mxGeometry width="115" height="48" as="geometry">
            <mxRectangle width="115" height="48" as="alternateBounds" />
          </mxGeometry>
        </mxCell>
        <mxCell id="R_btmFy2LlRhvHQ2iQoU-254" value="&lt;font style=&quot;font-size: 14px;&quot;&gt;INT&lt;/font&gt;" style="shape=partialRectangle;html=1;whiteSpace=wrap;connectable=0;strokeColor=inherit;overflow=hidden;fillColor=none;top=0;left=0;bottom=0;right=0;pointerEvents=1;fontSize=16;" vertex="1" parent="R_btmFy2LlRhvHQ2iQoU-252">
          <mxGeometry x="115" width="112" height="48" as="geometry">
            <mxRectangle width="112" height="48" as="alternateBounds" />
          </mxGeometry>
        </mxCell>
        <mxCell id="R_btmFy2LlRhvHQ2iQoU-255" value="&lt;span style=&quot;color: rgb(31, 35, 40); font-family: -apple-system, BlinkMacSystemFont, &amp;quot;Segoe UI&amp;quot;, &amp;quot;Noto Sans&amp;quot;, Helvetica, Arial, sans-serif, &amp;quot;Apple Color Emoji&amp;quot;, &amp;quot;Segoe UI Emoji&amp;quot;; text-align: start; background-color: rgb(255, 255, 255);&quot;&gt;PRIMARY KEY, AUTO_INCREMENT&lt;/span&gt;" style="shape=partialRectangle;html=1;whiteSpace=wrap;connectable=0;strokeColor=inherit;overflow=hidden;fillColor=none;top=0;left=0;bottom=0;right=0;pointerEvents=1;fontSize=16;" vertex="1" parent="R_btmFy2LlRhvHQ2iQoU-252">
          <mxGeometry x="227" width="223" height="48" as="geometry">
            <mxRectangle width="223" height="48" as="alternateBounds" />
          </mxGeometry>
        </mxCell>
        <mxCell id="R_btmFy2LlRhvHQ2iQoU-256" value="" style="shape=tableRow;horizontal=0;startSize=0;swimlaneHead=0;swimlaneBody=0;strokeColor=inherit;top=0;left=0;bottom=0;right=0;collapsible=0;dropTarget=0;fillColor=none;points=[[0,0.5],[1,0.5]];portConstraint=eastwest;fontSize=16;" vertex="1" parent="R_btmFy2LlRhvHQ2iQoU-247">
          <mxGeometry y="97" width="450" height="33" as="geometry" />
        </mxCell>
        <mxCell id="R_btmFy2LlRhvHQ2iQoU-257" value="&lt;div style=&quot;text-align: start;&quot;&gt;&lt;font face=&quot;-apple-system, BlinkMacSystemFont, Segoe UI, Noto Sans, Helvetica, Arial, sans-serif, Apple Color Emoji, Segoe UI Emoji&quot; color=&quot;#1f2328&quot;&gt;&lt;span style=&quot;background-color: rgb(246, 248, 250);&quot;&gt;name&lt;/span&gt;&lt;/font&gt;&lt;/div&gt;" style="shape=partialRectangle;html=1;whiteSpace=wrap;connectable=0;strokeColor=inherit;overflow=hidden;fillColor=none;top=0;left=0;bottom=0;right=0;pointerEvents=1;fontSize=16;" vertex="1" parent="R_btmFy2LlRhvHQ2iQoU-256">
          <mxGeometry width="115" height="33" as="geometry">
            <mxRectangle width="115" height="33" as="alternateBounds" />
          </mxGeometry>
        </mxCell>
        <mxCell id="R_btmFy2LlRhvHQ2iQoU-258" value="&lt;font style=&quot;font-size: 14px;&quot;&gt;VARCHAR(100)&lt;/font&gt;" style="shape=partialRectangle;html=1;whiteSpace=wrap;connectable=0;strokeColor=inherit;overflow=hidden;fillColor=none;top=0;left=0;bottom=0;right=0;pointerEvents=1;fontSize=16;" vertex="1" parent="R_btmFy2LlRhvHQ2iQoU-256">
          <mxGeometry x="115" width="112" height="33" as="geometry">
            <mxRectangle width="112" height="33" as="alternateBounds" />
          </mxGeometry>
        </mxCell>
        <mxCell id="R_btmFy2LlRhvHQ2iQoU-259" value="" style="shape=partialRectangle;html=1;whiteSpace=wrap;connectable=0;strokeColor=inherit;overflow=hidden;fillColor=none;top=0;left=0;bottom=0;right=0;pointerEvents=1;fontSize=16;" vertex="1" parent="R_btmFy2LlRhvHQ2iQoU-256">
          <mxGeometry x="227" width="223" height="33" as="geometry">
            <mxRectangle width="223" height="33" as="alternateBounds" />
          </mxGeometry>
        </mxCell>
        <mxCell id="R_btmFy2LlRhvHQ2iQoU-260" value="" style="shape=tableRow;horizontal=0;startSize=0;swimlaneHead=0;swimlaneBody=0;strokeColor=inherit;top=0;left=0;bottom=0;right=0;collapsible=0;dropTarget=0;fillColor=none;points=[[0,0.5],[1,0.5]];portConstraint=eastwest;fontSize=16;" vertex="1" parent="R_btmFy2LlRhvHQ2iQoU-247">
          <mxGeometry y="130" width="450" height="20" as="geometry" />
        </mxCell>
        <mxCell id="R_btmFy2LlRhvHQ2iQoU-261" value="&lt;span style=&quot;color: rgb(31, 35, 40); font-family: -apple-system, BlinkMacSystemFont, &amp;quot;Segoe UI&amp;quot;, &amp;quot;Noto Sans&amp;quot;, Helvetica, Arial, sans-serif, &amp;quot;Apple Color Emoji&amp;quot;, &amp;quot;Segoe UI Emoji&amp;quot;; text-align: start; background-color: rgb(255, 255, 255);&quot;&gt;description&lt;/span&gt;" style="shape=partialRectangle;html=1;whiteSpace=wrap;connectable=0;strokeColor=inherit;overflow=hidden;fillColor=none;top=0;left=0;bottom=0;right=0;pointerEvents=1;fontSize=16;" vertex="1" parent="R_btmFy2LlRhvHQ2iQoU-260">
          <mxGeometry width="115" height="20" as="geometry">
            <mxRectangle width="115" height="20" as="alternateBounds" />
          </mxGeometry>
        </mxCell>
        <mxCell id="R_btmFy2LlRhvHQ2iQoU-262" value="&lt;font style=&quot;font-size: 12px;&quot;&gt;TEXT&lt;/font&gt;" style="shape=partialRectangle;html=1;whiteSpace=wrap;connectable=0;strokeColor=inherit;overflow=hidden;fillColor=none;top=0;left=0;bottom=0;right=0;pointerEvents=1;fontSize=16;" vertex="1" parent="R_btmFy2LlRhvHQ2iQoU-260">
          <mxGeometry x="115" width="112" height="20" as="geometry">
            <mxRectangle width="112" height="20" as="alternateBounds" />
          </mxGeometry>
        </mxCell>
        <mxCell id="R_btmFy2LlRhvHQ2iQoU-263" value="" style="shape=partialRectangle;html=1;whiteSpace=wrap;connectable=0;strokeColor=inherit;overflow=hidden;fillColor=none;top=0;left=0;bottom=0;right=0;pointerEvents=1;fontSize=16;" vertex="1" parent="R_btmFy2LlRhvHQ2iQoU-260">
          <mxGeometry x="227" width="223" height="20" as="geometry">
            <mxRectangle width="223" height="20" as="alternateBounds" />
          </mxGeometry>
        </mxCell>
        <mxCell id="R_btmFy2LlRhvHQ2iQoU-264" value="" style="shape=tableRow;horizontal=0;startSize=0;swimlaneHead=0;swimlaneBody=0;strokeColor=inherit;top=0;left=0;bottom=0;right=0;collapsible=0;dropTarget=0;fillColor=none;points=[[0,0.5],[1,0.5]];portConstraint=eastwest;fontSize=16;" vertex="1" parent="R_btmFy2LlRhvHQ2iQoU-247">
          <mxGeometry y="150" width="450" height="34" as="geometry" />
        </mxCell>
        <mxCell id="R_btmFy2LlRhvHQ2iQoU-265" value="&lt;span style=&quot;color: rgb(31, 35, 40); font-family: -apple-system, BlinkMacSystemFont, &amp;quot;Segoe UI&amp;quot;, &amp;quot;Noto Sans&amp;quot;, Helvetica, Arial, sans-serif, &amp;quot;Apple Color Emoji&amp;quot;, &amp;quot;Segoe UI Emoji&amp;quot;; text-align: start; background-color: rgb(246, 248, 250);&quot;&gt;&lt;font style=&quot;font-size: 18px;&quot;&gt;ccriteria&lt;/font&gt;&lt;/span&gt;" style="shape=partialRectangle;html=1;whiteSpace=wrap;connectable=0;strokeColor=inherit;overflow=hidden;fillColor=none;top=0;left=0;bottom=0;right=0;pointerEvents=1;fontSize=16;" vertex="1" parent="R_btmFy2LlRhvHQ2iQoU-264">
          <mxGeometry width="115" height="34" as="geometry">
            <mxRectangle width="115" height="34" as="alternateBounds" />
          </mxGeometry>
        </mxCell>
        <mxCell id="R_btmFy2LlRhvHQ2iQoU-266" value="&lt;span style=&quot;font-size: 12px;&quot;&gt;TEXT&lt;/span&gt;" style="shape=partialRectangle;html=1;whiteSpace=wrap;connectable=0;strokeColor=inherit;overflow=hidden;fillColor=none;top=0;left=0;bottom=0;right=0;pointerEvents=1;fontSize=16;" vertex="1" parent="R_btmFy2LlRhvHQ2iQoU-264">
          <mxGeometry x="115" width="112" height="34" as="geometry">
            <mxRectangle width="112" height="34" as="alternateBounds" />
          </mxGeometry>
        </mxCell>
        <mxCell id="R_btmFy2LlRhvHQ2iQoU-267" value="" style="shape=partialRectangle;html=1;whiteSpace=wrap;connectable=0;strokeColor=inherit;overflow=hidden;fillColor=none;top=0;left=0;bottom=0;right=0;pointerEvents=1;fontSize=16;" vertex="1" parent="R_btmFy2LlRhvHQ2iQoU-264">
          <mxGeometry x="227" width="223" height="34" as="geometry">
            <mxRectangle width="223" height="34" as="alternateBounds" />
          </mxGeometry>
        </mxCell>
        <mxCell id="R_btmFy2LlRhvHQ2iQoU-268" value="" style="shape=tableRow;horizontal=0;startSize=0;swimlaneHead=0;swimlaneBody=0;strokeColor=inherit;top=0;left=0;bottom=0;right=0;collapsible=0;dropTarget=0;fillColor=none;points=[[0,0.5],[1,0.5]];portConstraint=eastwest;fontSize=16;" vertex="1" parent="R_btmFy2LlRhvHQ2iQoU-247">
          <mxGeometry y="184" width="450" height="27" as="geometry" />
        </mxCell>
        <mxCell id="R_btmFy2LlRhvHQ2iQoU-269" value="&lt;span style=&quot;color: rgb(31, 35, 40); font-family: -apple-system, BlinkMacSystemFont, &amp;quot;Segoe UI&amp;quot;, &amp;quot;Noto Sans&amp;quot;, Helvetica, Arial, sans-serif, &amp;quot;Apple Color Emoji&amp;quot;, &amp;quot;Segoe UI Emoji&amp;quot;; text-align: start; background-color: rgb(255, 255, 255);&quot;&gt;amount&lt;/span&gt;" style="shape=partialRectangle;html=1;whiteSpace=wrap;connectable=0;strokeColor=inherit;overflow=hidden;fillColor=none;top=0;left=0;bottom=0;right=0;pointerEvents=1;fontSize=16;" vertex="1" parent="R_btmFy2LlRhvHQ2iQoU-268">
          <mxGeometry width="115" height="27" as="geometry">
            <mxRectangle width="115" height="27" as="alternateBounds" />
          </mxGeometry>
        </mxCell>
        <mxCell id="R_btmFy2LlRhvHQ2iQoU-270" value="&lt;font style=&quot;font-size: 14px;&quot;&gt;DECIMAL(10, 2)&lt;/font&gt;" style="shape=partialRectangle;html=1;whiteSpace=wrap;connectable=0;strokeColor=inherit;overflow=hidden;fillColor=none;top=0;left=0;bottom=0;right=0;pointerEvents=1;fontSize=16;" vertex="1" parent="R_btmFy2LlRhvHQ2iQoU-268">
          <mxGeometry x="115" width="112" height="27" as="geometry">
            <mxRectangle width="112" height="27" as="alternateBounds" />
          </mxGeometry>
        </mxCell>
        <mxCell id="R_btmFy2LlRhvHQ2iQoU-271" value="" style="shape=partialRectangle;html=1;whiteSpace=wrap;connectable=0;strokeColor=inherit;overflow=hidden;fillColor=none;top=0;left=0;bottom=0;right=0;pointerEvents=1;fontSize=16;" vertex="1" parent="R_btmFy2LlRhvHQ2iQoU-268">
          <mxGeometry x="227" width="223" height="27" as="geometry">
            <mxRectangle width="223" height="27" as="alternateBounds" />
          </mxGeometry>
        </mxCell>
        <mxCell id="R_btmFy2LlRhvHQ2iQoU-272" value="" style="shape=tableRow;horizontal=0;startSize=0;swimlaneHead=0;swimlaneBody=0;strokeColor=inherit;top=0;left=0;bottom=0;right=0;collapsible=0;dropTarget=0;fillColor=none;points=[[0,0.5],[1,0.5]];portConstraint=eastwest;fontSize=16;" vertex="1" parent="R_btmFy2LlRhvHQ2iQoU-247">
          <mxGeometry y="211" width="450" height="29" as="geometry" />
        </mxCell>
        <mxCell id="R_btmFy2LlRhvHQ2iQoU-273" value="&lt;span style=&quot;color: rgb(31, 35, 40); font-family: -apple-system, BlinkMacSystemFont, &amp;quot;Segoe UI&amp;quot;, &amp;quot;Noto Sans&amp;quot;, Helvetica, Arial, sans-serif, &amp;quot;Apple Color Emoji&amp;quot;, &amp;quot;Segoe UI Emoji&amp;quot;; text-align: start; background-color: rgb(246, 248, 250);&quot;&gt;donor_id&lt;/span&gt;" style="shape=partialRectangle;html=1;whiteSpace=wrap;connectable=0;strokeColor=inherit;overflow=hidden;fillColor=none;top=0;left=0;bottom=0;right=0;pointerEvents=1;fontSize=16;" vertex="1" parent="R_btmFy2LlRhvHQ2iQoU-272">
          <mxGeometry width="115" height="29" as="geometry">
            <mxRectangle width="115" height="29" as="alternateBounds" />
          </mxGeometry>
        </mxCell>
        <mxCell id="R_btmFy2LlRhvHQ2iQoU-274" value="&lt;font style=&quot;font-size: 14px;&quot;&gt;INT&lt;/font&gt;" style="shape=partialRectangle;html=1;whiteSpace=wrap;connectable=0;strokeColor=inherit;overflow=hidden;fillColor=none;top=0;left=0;bottom=0;right=0;pointerEvents=1;fontSize=16;" vertex="1" parent="R_btmFy2LlRhvHQ2iQoU-272">
          <mxGeometry x="115" width="112" height="29" as="geometry">
            <mxRectangle width="112" height="29" as="alternateBounds" />
          </mxGeometry>
        </mxCell>
        <mxCell id="R_btmFy2LlRhvHQ2iQoU-275" value="&lt;font style=&quot;font-size: 14px;&quot;&gt;REFERENCES Donors(donor_id)&lt;/font&gt;" style="shape=partialRectangle;html=1;whiteSpace=wrap;connectable=0;strokeColor=inherit;overflow=hidden;fillColor=none;top=0;left=0;bottom=0;right=0;pointerEvents=1;fontSize=16;" vertex="1" parent="R_btmFy2LlRhvHQ2iQoU-272">
          <mxGeometry x="227" width="223" height="29" as="geometry">
            <mxRectangle width="223" height="29" as="alternateBounds" />
          </mxGeometry>
        </mxCell>
        <mxCell id="R_btmFy2LlRhvHQ2iQoU-276" value="" style="endArrow=none;html=1;rounded=0;" edge="1" parent="1">
          <mxGeometry relative="1" as="geometry">
            <mxPoint x="-770" y="100" as="sourcePoint" />
            <mxPoint x="-833" y="579" as="targetPoint" />
            <Array as="points">
              <mxPoint x="-833" y="100" />
              <mxPoint x="-833" y="579" />
              <mxPoint x="-763" y="579" />
            </Array>
          </mxGeometry>
        </mxCell>
        <mxCell id="R_btmFy2LlRhvHQ2iQoU-277" value="" style="endArrow=none;html=1;rounded=0;" edge="1" parent="1">
          <mxGeometry relative="1" as="geometry">
            <mxPoint x="80" y="380" as="sourcePoint" />
            <mxPoint x="-490" y="470" as="targetPoint" />
            <Array as="points">
              <mxPoint x="80" y="320" />
              <mxPoint x="-490" y="320" />
              <mxPoint x="-490" y="480" />
            </Array>
          </mxGeometry>
        </mxCell>
        <mxCell id="R_btmFy2LlRhvHQ2iQoU-279" value="Applicant" style="shape=table;startSize=24;container=1;collapsible=0;childLayout=tableLayout;strokeColor=default;fontSize=16;" vertex="1" parent="1">
          <mxGeometry x="-761" y="834" width="451" height="243.0000000000009" as="geometry" />
        </mxCell>
        <mxCell id="R_btmFy2LlRhvHQ2iQoU-280" value="" style="shape=tableRow;horizontal=0;startSize=0;swimlaneHead=0;swimlaneBody=0;strokeColor=inherit;top=0;left=0;bottom=0;right=0;collapsible=0;dropTarget=0;fillColor=none;points=[[0,0.5],[1,0.5]];portConstraint=eastwest;fontSize=16;" vertex="1" parent="R_btmFy2LlRhvHQ2iQoU-279">
          <mxGeometry y="24" width="451" height="25" as="geometry" />
        </mxCell>
        <mxCell id="R_btmFy2LlRhvHQ2iQoU-281" value="FIELD" style="shape=partialRectangle;html=1;whiteSpace=wrap;connectable=0;strokeColor=inherit;overflow=hidden;fillColor=none;top=0;left=0;bottom=0;right=0;pointerEvents=1;fontSize=16;" vertex="1" parent="R_btmFy2LlRhvHQ2iQoU-280">
          <mxGeometry width="131" height="25" as="geometry">
            <mxRectangle width="131" height="25" as="alternateBounds" />
          </mxGeometry>
        </mxCell>
        <mxCell id="R_btmFy2LlRhvHQ2iQoU-282" value="DATA TYPE" style="shape=partialRectangle;html=1;whiteSpace=wrap;connectable=0;strokeColor=inherit;overflow=hidden;fillColor=none;top=0;left=0;bottom=0;right=0;pointerEvents=1;fontSize=16;" vertex="1" parent="R_btmFy2LlRhvHQ2iQoU-280">
          <mxGeometry x="131" width="96" height="25" as="geometry">
            <mxRectangle width="96" height="25" as="alternateBounds" />
          </mxGeometry>
        </mxCell>
        <mxCell id="R_btmFy2LlRhvHQ2iQoU-283" value="CONSTRAINTS" style="shape=partialRectangle;html=1;whiteSpace=wrap;connectable=0;strokeColor=inherit;overflow=hidden;fillColor=none;top=0;left=0;bottom=0;right=0;pointerEvents=1;fontSize=16;" vertex="1" parent="R_btmFy2LlRhvHQ2iQoU-280">
          <mxGeometry x="227" width="224" height="25" as="geometry">
            <mxRectangle width="224" height="25" as="alternateBounds" />
          </mxGeometry>
        </mxCell>
        <mxCell id="R_btmFy2LlRhvHQ2iQoU-284" value="" style="shape=tableRow;horizontal=0;startSize=0;swimlaneHead=0;swimlaneBody=0;strokeColor=inherit;top=0;left=0;bottom=0;right=0;collapsible=0;dropTarget=0;fillColor=none;points=[[0,0.5],[1,0.5]];portConstraint=eastwest;fontSize=16;" vertex="1" parent="R_btmFy2LlRhvHQ2iQoU-279">
          <mxGeometry y="49" width="451" height="48" as="geometry" />
        </mxCell>
        <mxCell id="R_btmFy2LlRhvHQ2iQoU-285" value="&lt;span style=&quot;color: rgb(31, 35, 40); font-family: -apple-system, BlinkMacSystemFont, &amp;quot;Segoe UI&amp;quot;, &amp;quot;Noto Sans&amp;quot;, Helvetica, Arial, sans-serif, &amp;quot;Apple Color Emoji&amp;quot;, &amp;quot;Segoe UI Emoji&amp;quot;; text-align: start; background-color: rgb(255, 255, 255);&quot;&gt;application_id&lt;/span&gt;" style="shape=partialRectangle;html=1;whiteSpace=wrap;connectable=0;strokeColor=inherit;overflow=hidden;fillColor=none;top=0;left=0;bottom=0;right=0;pointerEvents=1;fontSize=16;" vertex="1" parent="R_btmFy2LlRhvHQ2iQoU-284">
          <mxGeometry width="131" height="48" as="geometry">
            <mxRectangle width="131" height="48" as="alternateBounds" />
          </mxGeometry>
        </mxCell>
        <mxCell id="R_btmFy2LlRhvHQ2iQoU-286" value="&lt;font style=&quot;font-size: 14px;&quot;&gt;INT&lt;/font&gt;" style="shape=partialRectangle;html=1;whiteSpace=wrap;connectable=0;strokeColor=inherit;overflow=hidden;fillColor=none;top=0;left=0;bottom=0;right=0;pointerEvents=1;fontSize=16;" vertex="1" parent="R_btmFy2LlRhvHQ2iQoU-284">
          <mxGeometry x="131" width="96" height="48" as="geometry">
            <mxRectangle width="96" height="48" as="alternateBounds" />
          </mxGeometry>
        </mxCell>
        <mxCell id="R_btmFy2LlRhvHQ2iQoU-287" value="&lt;span style=&quot;color: rgb(31, 35, 40); font-family: -apple-system, BlinkMacSystemFont, &amp;quot;Segoe UI&amp;quot;, &amp;quot;Noto Sans&amp;quot;, Helvetica, Arial, sans-serif, &amp;quot;Apple Color Emoji&amp;quot;, &amp;quot;Segoe UI Emoji&amp;quot;; text-align: start; background-color: rgb(255, 255, 255);&quot;&gt;PRIMARY KEY, AUTO_INCREMENT&lt;/span&gt;" style="shape=partialRectangle;html=1;whiteSpace=wrap;connectable=0;strokeColor=inherit;overflow=hidden;fillColor=none;top=0;left=0;bottom=0;right=0;pointerEvents=1;fontSize=16;" vertex="1" parent="R_btmFy2LlRhvHQ2iQoU-284">
          <mxGeometry x="227" width="224" height="48" as="geometry">
            <mxRectangle width="224" height="48" as="alternateBounds" />
          </mxGeometry>
        </mxCell>
        <mxCell id="R_btmFy2LlRhvHQ2iQoU-288" value="" style="shape=tableRow;horizontal=0;startSize=0;swimlaneHead=0;swimlaneBody=0;strokeColor=inherit;top=0;left=0;bottom=0;right=0;collapsible=0;dropTarget=0;fillColor=none;points=[[0,0.5],[1,0.5]];portConstraint=eastwest;fontSize=16;" vertex="1" parent="R_btmFy2LlRhvHQ2iQoU-279">
          <mxGeometry y="97" width="451" height="39" as="geometry" />
        </mxCell>
        <mxCell id="R_btmFy2LlRhvHQ2iQoU-289" value="&lt;div style=&quot;text-align: start;&quot;&gt;&lt;font face=&quot;-apple-system, BlinkMacSystemFont, Segoe UI, Noto Sans, Helvetica, Arial, sans-serif, Apple Color Emoji, Segoe UI Emoji&quot; color=&quot;#1f2328&quot;&gt;&lt;span style=&quot;background-color: rgb(246, 248, 250);&quot;&gt;student_id&lt;/span&gt;&lt;/font&gt;&lt;/div&gt;" style="shape=partialRectangle;html=1;whiteSpace=wrap;connectable=0;strokeColor=inherit;overflow=hidden;fillColor=none;top=0;left=0;bottom=0;right=0;pointerEvents=1;fontSize=16;" vertex="1" parent="R_btmFy2LlRhvHQ2iQoU-288">
          <mxGeometry width="131" height="39" as="geometry">
            <mxRectangle width="131" height="39" as="alternateBounds" />
          </mxGeometry>
        </mxCell>
        <mxCell id="R_btmFy2LlRhvHQ2iQoU-290" value="&lt;font style=&quot;font-size: 14px;&quot;&gt;INT&lt;/font&gt;" style="shape=partialRectangle;html=1;whiteSpace=wrap;connectable=0;strokeColor=inherit;overflow=hidden;fillColor=none;top=0;left=0;bottom=0;right=0;pointerEvents=1;fontSize=16;" vertex="1" parent="R_btmFy2LlRhvHQ2iQoU-288">
          <mxGeometry x="131" width="96" height="39" as="geometry">
            <mxRectangle width="96" height="39" as="alternateBounds" />
          </mxGeometry>
        </mxCell>
        <mxCell id="R_btmFy2LlRhvHQ2iQoU-291" value="&lt;font style=&quot;font-size: 14px;&quot;&gt;REFERENCES&lt;/font&gt; Students(student_id)" style="shape=partialRectangle;html=1;whiteSpace=wrap;connectable=0;strokeColor=inherit;overflow=hidden;fillColor=none;top=0;left=0;bottom=0;right=0;pointerEvents=1;fontSize=16;" vertex="1" parent="R_btmFy2LlRhvHQ2iQoU-288">
          <mxGeometry x="227" width="224" height="39" as="geometry">
            <mxRectangle width="224" height="39" as="alternateBounds" />
          </mxGeometry>
        </mxCell>
        <mxCell id="R_btmFy2LlRhvHQ2iQoU-292" value="" style="shape=tableRow;horizontal=0;startSize=0;swimlaneHead=0;swimlaneBody=0;strokeColor=inherit;top=0;left=0;bottom=0;right=0;collapsible=0;dropTarget=0;fillColor=none;points=[[0,0.5],[1,0.5]];portConstraint=eastwest;fontSize=16;" vertex="1" parent="R_btmFy2LlRhvHQ2iQoU-279">
          <mxGeometry y="136" width="451" height="40" as="geometry" />
        </mxCell>
        <mxCell id="R_btmFy2LlRhvHQ2iQoU-293" value="&lt;span style=&quot;color: rgb(31, 35, 40); font-family: -apple-system, BlinkMacSystemFont, &amp;quot;Segoe UI&amp;quot;, &amp;quot;Noto Sans&amp;quot;, Helvetica, Arial, sans-serif, &amp;quot;Apple Color Emoji&amp;quot;, &amp;quot;Segoe UI Emoji&amp;quot;; text-align: start; background-color: rgb(255, 255, 255);&quot;&gt;scholarship_id&lt;/span&gt;" style="shape=partialRectangle;html=1;whiteSpace=wrap;connectable=0;strokeColor=inherit;overflow=hidden;fillColor=none;top=0;left=0;bottom=0;right=0;pointerEvents=1;fontSize=16;" vertex="1" parent="R_btmFy2LlRhvHQ2iQoU-292">
          <mxGeometry width="131" height="40" as="geometry">
            <mxRectangle width="131" height="40" as="alternateBounds" />
          </mxGeometry>
        </mxCell>
        <mxCell id="R_btmFy2LlRhvHQ2iQoU-294" value="&lt;font style=&quot;font-size: 12px;&quot;&gt;INT&lt;/font&gt;" style="shape=partialRectangle;html=1;whiteSpace=wrap;connectable=0;strokeColor=inherit;overflow=hidden;fillColor=none;top=0;left=0;bottom=0;right=0;pointerEvents=1;fontSize=16;" vertex="1" parent="R_btmFy2LlRhvHQ2iQoU-292">
          <mxGeometry x="131" width="96" height="40" as="geometry">
            <mxRectangle width="96" height="40" as="alternateBounds" />
          </mxGeometry>
        </mxCell>
        <mxCell id="R_btmFy2LlRhvHQ2iQoU-295" value="REFERENCES Scholarships(scholarship_id)" style="shape=partialRectangle;html=1;whiteSpace=wrap;connectable=0;strokeColor=inherit;overflow=hidden;fillColor=none;top=0;left=0;bottom=0;right=0;pointerEvents=1;fontSize=16;" vertex="1" parent="R_btmFy2LlRhvHQ2iQoU-292">
          <mxGeometry x="227" width="224" height="40" as="geometry">
            <mxRectangle width="224" height="40" as="alternateBounds" />
          </mxGeometry>
        </mxCell>
        <mxCell id="R_btmFy2LlRhvHQ2iQoU-296" value="" style="shape=tableRow;horizontal=0;startSize=0;swimlaneHead=0;swimlaneBody=0;strokeColor=inherit;top=0;left=0;bottom=0;right=0;collapsible=0;dropTarget=0;fillColor=none;points=[[0,0.5],[1,0.5]];portConstraint=eastwest;fontSize=16;" vertex="1" parent="R_btmFy2LlRhvHQ2iQoU-279">
          <mxGeometry y="176" width="451" height="40" as="geometry" />
        </mxCell>
        <mxCell id="R_btmFy2LlRhvHQ2iQoU-297" value="&lt;span style=&quot;color: rgb(31, 35, 40); font-family: -apple-system, BlinkMacSystemFont, &amp;quot;Segoe UI&amp;quot;, &amp;quot;Noto Sans&amp;quot;, Helvetica, Arial, sans-serif, &amp;quot;Apple Color Emoji&amp;quot;, &amp;quot;Segoe UI Emoji&amp;quot;; text-align: start; background-color: rgb(246, 248, 250);&quot;&gt;&lt;font style=&quot;font-size: 18px;&quot;&gt;application_date&lt;/font&gt;&lt;/span&gt;" style="shape=partialRectangle;html=1;whiteSpace=wrap;connectable=0;strokeColor=inherit;overflow=hidden;fillColor=none;top=0;left=0;bottom=0;right=0;pointerEvents=1;fontSize=16;" vertex="1" parent="R_btmFy2LlRhvHQ2iQoU-296">
          <mxGeometry width="131" height="40" as="geometry">
            <mxRectangle width="131" height="40" as="alternateBounds" />
          </mxGeometry>
        </mxCell>
        <mxCell id="R_btmFy2LlRhvHQ2iQoU-298" value="&lt;span style=&quot;font-size: 12px;&quot;&gt;DATE&lt;/span&gt;" style="shape=partialRectangle;html=1;whiteSpace=wrap;connectable=0;strokeColor=inherit;overflow=hidden;fillColor=none;top=0;left=0;bottom=0;right=0;pointerEvents=1;fontSize=16;" vertex="1" parent="R_btmFy2LlRhvHQ2iQoU-296">
          <mxGeometry x="131" width="96" height="40" as="geometry">
            <mxRectangle width="96" height="40" as="alternateBounds" />
          </mxGeometry>
        </mxCell>
        <mxCell id="R_btmFy2LlRhvHQ2iQoU-299" value="" style="shape=partialRectangle;html=1;whiteSpace=wrap;connectable=0;strokeColor=inherit;overflow=hidden;fillColor=none;top=0;left=0;bottom=0;right=0;pointerEvents=1;fontSize=16;" vertex="1" parent="R_btmFy2LlRhvHQ2iQoU-296">
          <mxGeometry x="227" width="224" height="40" as="geometry">
            <mxRectangle width="224" height="40" as="alternateBounds" />
          </mxGeometry>
        </mxCell>
        <mxCell id="R_btmFy2LlRhvHQ2iQoU-300" value="" style="shape=tableRow;horizontal=0;startSize=0;swimlaneHead=0;swimlaneBody=0;strokeColor=inherit;top=0;left=0;bottom=0;right=0;collapsible=0;dropTarget=0;fillColor=none;points=[[0,0.5],[1,0.5]];portConstraint=eastwest;fontSize=16;" vertex="1" parent="R_btmFy2LlRhvHQ2iQoU-279">
          <mxGeometry y="216" width="451" height="27" as="geometry" />
        </mxCell>
        <mxCell id="R_btmFy2LlRhvHQ2iQoU-301" value="&lt;span style=&quot;color: rgb(31, 35, 40); font-family: -apple-system, BlinkMacSystemFont, &amp;quot;Segoe UI&amp;quot;, &amp;quot;Noto Sans&amp;quot;, Helvetica, Arial, sans-serif, &amp;quot;Apple Color Emoji&amp;quot;, &amp;quot;Segoe UI Emoji&amp;quot;; text-align: start; background-color: rgb(255, 255, 255);&quot;&gt;&lt;font style=&quot;font-size: 18px;&quot;&gt;status&lt;/font&gt;&lt;/span&gt;" style="shape=partialRectangle;html=1;whiteSpace=wrap;connectable=0;strokeColor=inherit;overflow=hidden;fillColor=none;top=0;left=0;bottom=0;right=0;pointerEvents=1;fontSize=16;" vertex="1" parent="R_btmFy2LlRhvHQ2iQoU-300">
          <mxGeometry width="131" height="27" as="geometry">
            <mxRectangle width="131" height="27" as="alternateBounds" />
          </mxGeometry>
        </mxCell>
        <mxCell id="R_btmFy2LlRhvHQ2iQoU-302" value="&lt;font style=&quot;font-size: 14px;&quot;&gt;VARCHAR(20)&lt;/font&gt;" style="shape=partialRectangle;html=1;whiteSpace=wrap;connectable=0;strokeColor=inherit;overflow=hidden;fillColor=none;top=0;left=0;bottom=0;right=0;pointerEvents=1;fontSize=16;" vertex="1" parent="R_btmFy2LlRhvHQ2iQoU-300">
          <mxGeometry x="131" width="96" height="27" as="geometry">
            <mxRectangle width="96" height="27" as="alternateBounds" />
          </mxGeometry>
        </mxCell>
        <mxCell id="R_btmFy2LlRhvHQ2iQoU-303" value="" style="shape=partialRectangle;html=1;whiteSpace=wrap;connectable=0;strokeColor=inherit;overflow=hidden;fillColor=none;top=0;left=0;bottom=0;right=0;pointerEvents=1;fontSize=16;" vertex="1" parent="R_btmFy2LlRhvHQ2iQoU-300">
          <mxGeometry x="227" width="224" height="27" as="geometry">
            <mxRectangle width="224" height="27" as="alternateBounds" />
          </mxGeometry>
        </mxCell>
        <mxCell id="R_btmFy2LlRhvHQ2iQoU-309" value="" style="endArrow=none;html=1;rounded=0;" edge="1" parent="1">
          <mxGeometry relative="1" as="geometry">
            <mxPoint x="-780" y="650" as="sourcePoint" />
            <mxPoint x="-833" y="970" as="targetPoint" />
            <Array as="points">
              <mxPoint x="-833" y="650" />
              <mxPoint x="-833" y="970" />
              <mxPoint x="-763" y="970" />
            </Array>
          </mxGeometry>
        </mxCell>
        <mxCell id="R_btmFy2LlRhvHQ2iQoU-311" value="" style="endArrow=none;html=1;rounded=0;" edge="1" parent="1">
          <mxGeometry relative="1" as="geometry">
            <mxPoint x="-10" y="440" as="sourcePoint" />
            <mxPoint x="-200" y="970" as="targetPoint" />
            <Array as="points">
              <mxPoint x="-188" y="440" />
              <mxPoint x="-178" y="971" />
              <mxPoint x="-310" y="971" />
            </Array>
          </mxGeometry>
        </mxCell>
        <mxCell id="R_btmFy2LlRhvHQ2iQoU-312" value="" style="endArrow=none;html=1;rounded=0;" edge="1" parent="1">
          <mxGeometry relative="1" as="geometry">
            <mxPoint x="772.09" y="237" as="sourcePoint" />
            <mxPoint x="772.09" y="387" as="targetPoint" />
            <Array as="points" />
          </mxGeometry>
        </mxCell>
        <mxCell id="R_btmFy2LlRhvHQ2iQoU-313" value="Award" style="shape=table;startSize=30;container=1;collapsible=0;childLayout=tableLayout;strokeColor=default;fontSize=16;" vertex="1" parent="1">
          <mxGeometry x="572.5" y="775" width="421" height="225" as="geometry" />
        </mxCell>
        <mxCell id="R_btmFy2LlRhvHQ2iQoU-314" value="" style="shape=tableRow;horizontal=0;startSize=0;swimlaneHead=0;swimlaneBody=0;strokeColor=inherit;top=0;left=0;bottom=0;right=0;collapsible=0;dropTarget=0;fillColor=none;points=[[0,0.5],[1,0.5]];portConstraint=eastwest;fontSize=16;" vertex="1" parent="R_btmFy2LlRhvHQ2iQoU-313">
          <mxGeometry y="30" width="421" height="21" as="geometry" />
        </mxCell>
        <mxCell id="R_btmFy2LlRhvHQ2iQoU-315" value="FIELD" style="shape=partialRectangle;html=1;whiteSpace=wrap;connectable=0;strokeColor=inherit;overflow=hidden;fillColor=none;top=0;left=0;bottom=0;right=0;pointerEvents=1;fontSize=16;" vertex="1" parent="R_btmFy2LlRhvHQ2iQoU-314">
          <mxGeometry width="128" height="21" as="geometry">
            <mxRectangle width="128" height="21" as="alternateBounds" />
          </mxGeometry>
        </mxCell>
        <mxCell id="R_btmFy2LlRhvHQ2iQoU-316" value="DATA TYPE" style="shape=partialRectangle;html=1;whiteSpace=wrap;connectable=0;strokeColor=inherit;overflow=hidden;fillColor=none;top=0;left=0;bottom=0;right=0;pointerEvents=1;fontSize=16;" vertex="1" parent="R_btmFy2LlRhvHQ2iQoU-314">
          <mxGeometry x="128" width="110" height="21" as="geometry">
            <mxRectangle width="110" height="21" as="alternateBounds" />
          </mxGeometry>
        </mxCell>
        <mxCell id="R_btmFy2LlRhvHQ2iQoU-317" value="CONSTRAINTS" style="shape=partialRectangle;html=1;whiteSpace=wrap;connectable=0;strokeColor=inherit;overflow=hidden;fillColor=none;top=0;left=0;bottom=0;right=0;pointerEvents=1;fontSize=16;" vertex="1" parent="R_btmFy2LlRhvHQ2iQoU-314">
          <mxGeometry x="238" width="183" height="21" as="geometry">
            <mxRectangle width="183" height="21" as="alternateBounds" />
          </mxGeometry>
        </mxCell>
        <mxCell id="R_btmFy2LlRhvHQ2iQoU-318" value="" style="shape=tableRow;horizontal=0;startSize=0;swimlaneHead=0;swimlaneBody=0;strokeColor=inherit;top=0;left=0;bottom=0;right=0;collapsible=0;dropTarget=0;fillColor=none;points=[[0,0.5],[1,0.5]];portConstraint=eastwest;fontSize=16;" vertex="1" parent="R_btmFy2LlRhvHQ2iQoU-313">
          <mxGeometry y="51" width="421" height="48" as="geometry" />
        </mxCell>
        <mxCell id="R_btmFy2LlRhvHQ2iQoU-319" value="&lt;span style=&quot;color: rgb(31, 35, 40); font-family: -apple-system, BlinkMacSystemFont, &amp;quot;Segoe UI&amp;quot;, &amp;quot;Noto Sans&amp;quot;, Helvetica, Arial, sans-serif, &amp;quot;Apple Color Emoji&amp;quot;, &amp;quot;Segoe UI Emoji&amp;quot;; text-align: start; background-color: rgb(255, 255, 255);&quot;&gt;award_id&lt;/span&gt;" style="shape=partialRectangle;html=1;whiteSpace=wrap;connectable=0;strokeColor=inherit;overflow=hidden;fillColor=none;top=0;left=0;bottom=0;right=0;pointerEvents=1;fontSize=16;" vertex="1" parent="R_btmFy2LlRhvHQ2iQoU-318">
          <mxGeometry width="128" height="48" as="geometry">
            <mxRectangle width="128" height="48" as="alternateBounds" />
          </mxGeometry>
        </mxCell>
        <mxCell id="R_btmFy2LlRhvHQ2iQoU-320" value="INT" style="shape=partialRectangle;html=1;whiteSpace=wrap;connectable=0;strokeColor=inherit;overflow=hidden;fillColor=none;top=0;left=0;bottom=0;right=0;pointerEvents=1;fontSize=16;" vertex="1" parent="R_btmFy2LlRhvHQ2iQoU-318">
          <mxGeometry x="128" width="110" height="48" as="geometry">
            <mxRectangle width="110" height="48" as="alternateBounds" />
          </mxGeometry>
        </mxCell>
        <mxCell id="R_btmFy2LlRhvHQ2iQoU-321" value="&lt;span style=&quot;color: rgb(31, 35, 40); font-family: -apple-system, BlinkMacSystemFont, &amp;quot;Segoe UI&amp;quot;, &amp;quot;Noto Sans&amp;quot;, Helvetica, Arial, sans-serif, &amp;quot;Apple Color Emoji&amp;quot;, &amp;quot;Segoe UI Emoji&amp;quot;; text-align: start; background-color: rgb(255, 255, 255);&quot;&gt;PRIMARY KEY, AUTO_INCREMENT&lt;/span&gt;" style="shape=partialRectangle;html=1;whiteSpace=wrap;connectable=0;strokeColor=inherit;overflow=hidden;fillColor=none;top=0;left=0;bottom=0;right=0;pointerEvents=1;fontSize=16;" vertex="1" parent="R_btmFy2LlRhvHQ2iQoU-318">
          <mxGeometry x="238" width="183" height="48" as="geometry">
            <mxRectangle width="183" height="48" as="alternateBounds" />
          </mxGeometry>
        </mxCell>
        <mxCell id="R_btmFy2LlRhvHQ2iQoU-322" value="" style="shape=tableRow;horizontal=0;startSize=0;swimlaneHead=0;swimlaneBody=0;strokeColor=inherit;top=0;left=0;bottom=0;right=0;collapsible=0;dropTarget=0;fillColor=none;points=[[0,0.5],[1,0.5]];portConstraint=eastwest;fontSize=16;" vertex="1" parent="R_btmFy2LlRhvHQ2iQoU-313">
          <mxGeometry y="99" width="421" height="48" as="geometry" />
        </mxCell>
        <mxCell id="R_btmFy2LlRhvHQ2iQoU-323" value="&lt;span style=&quot;color: rgb(31, 35, 40); font-family: -apple-system, BlinkMacSystemFont, &amp;quot;Segoe UI&amp;quot;, &amp;quot;Noto Sans&amp;quot;, Helvetica, Arial, sans-serif, &amp;quot;Apple Color Emoji&amp;quot;, &amp;quot;Segoe UI Emoji&amp;quot;; text-align: start; background-color: rgb(255, 255, 255);&quot;&gt;applicant_id&lt;/span&gt;" style="shape=partialRectangle;html=1;whiteSpace=wrap;connectable=0;strokeColor=inherit;overflow=hidden;fillColor=none;top=0;left=0;bottom=0;right=0;pointerEvents=1;fontSize=16;" vertex="1" parent="R_btmFy2LlRhvHQ2iQoU-322">
          <mxGeometry width="128" height="48" as="geometry">
            <mxRectangle width="128" height="48" as="alternateBounds" />
          </mxGeometry>
        </mxCell>
        <mxCell id="R_btmFy2LlRhvHQ2iQoU-324" value="INT" style="shape=partialRectangle;html=1;whiteSpace=wrap;connectable=0;strokeColor=inherit;overflow=hidden;fillColor=none;top=0;left=0;bottom=0;right=0;pointerEvents=1;fontSize=16;" vertex="1" parent="R_btmFy2LlRhvHQ2iQoU-322">
          <mxGeometry x="128" width="110" height="48" as="geometry">
            <mxRectangle width="110" height="48" as="alternateBounds" />
          </mxGeometry>
        </mxCell>
        <mxCell id="R_btmFy2LlRhvHQ2iQoU-325" value="REFERENCES Applicants(applicant_id)" style="shape=partialRectangle;html=1;whiteSpace=wrap;connectable=0;strokeColor=inherit;overflow=hidden;fillColor=none;top=0;left=0;bottom=0;right=0;pointerEvents=1;fontSize=16;" vertex="1" parent="R_btmFy2LlRhvHQ2iQoU-322">
          <mxGeometry x="238" width="183" height="48" as="geometry">
            <mxRectangle width="183" height="48" as="alternateBounds" />
          </mxGeometry>
        </mxCell>
        <mxCell id="R_btmFy2LlRhvHQ2iQoU-326" value="" style="shape=tableRow;horizontal=0;startSize=0;swimlaneHead=0;swimlaneBody=0;strokeColor=inherit;top=0;left=0;bottom=0;right=0;collapsible=0;dropTarget=0;fillColor=none;points=[[0,0.5],[1,0.5]];portConstraint=eastwest;fontSize=16;" vertex="1" parent="R_btmFy2LlRhvHQ2iQoU-313">
          <mxGeometry y="147" width="421" height="44" as="geometry" />
        </mxCell>
        <mxCell id="R_btmFy2LlRhvHQ2iQoU-327" value="&lt;span style=&quot;color: rgb(31, 35, 40); font-family: -apple-system, BlinkMacSystemFont, &amp;quot;Segoe UI&amp;quot;, &amp;quot;Noto Sans&amp;quot;, Helvetica, Arial, sans-serif, &amp;quot;Apple Color Emoji&amp;quot;, &amp;quot;Segoe UI Emoji&amp;quot;; text-align: start; background-color: rgb(246, 248, 250);&quot;&gt;award_date&lt;/span&gt;" style="shape=partialRectangle;html=1;whiteSpace=wrap;connectable=0;strokeColor=inherit;overflow=hidden;fillColor=none;top=0;left=0;bottom=0;right=0;pointerEvents=1;fontSize=16;" vertex="1" parent="R_btmFy2LlRhvHQ2iQoU-326">
          <mxGeometry width="128" height="44" as="geometry">
            <mxRectangle width="128" height="44" as="alternateBounds" />
          </mxGeometry>
        </mxCell>
        <mxCell id="R_btmFy2LlRhvHQ2iQoU-328" value="DATE" style="shape=partialRectangle;html=1;whiteSpace=wrap;connectable=0;strokeColor=inherit;overflow=hidden;fillColor=none;top=0;left=0;bottom=0;right=0;pointerEvents=1;fontSize=16;" vertex="1" parent="R_btmFy2LlRhvHQ2iQoU-326">
          <mxGeometry x="128" width="110" height="44" as="geometry">
            <mxRectangle width="110" height="44" as="alternateBounds" />
          </mxGeometry>
        </mxCell>
        <mxCell id="R_btmFy2LlRhvHQ2iQoU-329" value="" style="shape=partialRectangle;html=1;whiteSpace=wrap;connectable=0;strokeColor=inherit;overflow=hidden;fillColor=none;top=0;left=0;bottom=0;right=0;pointerEvents=1;fontSize=16;" vertex="1" parent="R_btmFy2LlRhvHQ2iQoU-326">
          <mxGeometry x="238" width="183" height="44" as="geometry">
            <mxRectangle width="183" height="44" as="alternateBounds" />
          </mxGeometry>
        </mxCell>
        <mxCell id="R_btmFy2LlRhvHQ2iQoU-330" value="" style="shape=tableRow;horizontal=0;startSize=0;swimlaneHead=0;swimlaneBody=0;strokeColor=inherit;top=0;left=0;bottom=0;right=0;collapsible=0;dropTarget=0;fillColor=none;points=[[0,0.5],[1,0.5]];portConstraint=eastwest;fontSize=16;" vertex="1" parent="R_btmFy2LlRhvHQ2iQoU-313">
          <mxGeometry y="191" width="421" height="34" as="geometry" />
        </mxCell>
        <mxCell id="R_btmFy2LlRhvHQ2iQoU-331" value="&lt;span style=&quot;color: rgb(31, 35, 40); font-family: -apple-system, BlinkMacSystemFont, &amp;quot;Segoe UI&amp;quot;, &amp;quot;Noto Sans&amp;quot;, Helvetica, Arial, sans-serif, &amp;quot;Apple Color Emoji&amp;quot;, &amp;quot;Segoe UI Emoji&amp;quot;; text-align: start; background-color: rgb(255, 255, 255);&quot;&gt;amount&lt;/span&gt;" style="shape=partialRectangle;html=1;whiteSpace=wrap;connectable=0;strokeColor=inherit;overflow=hidden;fillColor=none;top=0;left=0;bottom=0;right=0;pointerEvents=1;fontSize=16;" vertex="1" parent="R_btmFy2LlRhvHQ2iQoU-330">
          <mxGeometry width="128" height="34" as="geometry">
            <mxRectangle width="128" height="34" as="alternateBounds" />
          </mxGeometry>
        </mxCell>
        <mxCell id="R_btmFy2LlRhvHQ2iQoU-332" value="&lt;font style=&quot;font-size: 14px;&quot;&gt;DECIMAL(10, 2)&lt;/font&gt;" style="shape=partialRectangle;html=1;whiteSpace=wrap;connectable=0;strokeColor=inherit;overflow=hidden;fillColor=none;top=0;left=0;bottom=0;right=0;pointerEvents=1;fontSize=16;" vertex="1" parent="R_btmFy2LlRhvHQ2iQoU-330">
          <mxGeometry x="128" width="110" height="34" as="geometry">
            <mxRectangle width="110" height="34" as="alternateBounds" />
          </mxGeometry>
        </mxCell>
        <mxCell id="R_btmFy2LlRhvHQ2iQoU-333" value="" style="shape=partialRectangle;html=1;whiteSpace=wrap;connectable=0;strokeColor=inherit;overflow=hidden;fillColor=none;top=0;left=0;bottom=0;right=0;pointerEvents=1;fontSize=16;" vertex="1" parent="R_btmFy2LlRhvHQ2iQoU-330">
          <mxGeometry x="238" width="183" height="34" as="geometry">
            <mxRectangle width="183" height="34" as="alternateBounds" />
          </mxGeometry>
        </mxCell>
        <mxCell id="R_btmFy2LlRhvHQ2iQoU-338" value="Fund Disbursement " style="shape=table;startSize=30;container=1;collapsible=0;childLayout=tableLayout;strokeColor=default;fontSize=16;" vertex="1" parent="1">
          <mxGeometry x="1073.5" y="785" width="421" height="235" as="geometry" />
        </mxCell>
        <mxCell id="R_btmFy2LlRhvHQ2iQoU-339" value="" style="shape=tableRow;horizontal=0;startSize=0;swimlaneHead=0;swimlaneBody=0;strokeColor=inherit;top=0;left=0;bottom=0;right=0;collapsible=0;dropTarget=0;fillColor=none;points=[[0,0.5],[1,0.5]];portConstraint=eastwest;fontSize=16;" vertex="1" parent="R_btmFy2LlRhvHQ2iQoU-338">
          <mxGeometry y="30" width="421" height="21" as="geometry" />
        </mxCell>
        <mxCell id="R_btmFy2LlRhvHQ2iQoU-340" value="FIELD" style="shape=partialRectangle;html=1;whiteSpace=wrap;connectable=0;strokeColor=inherit;overflow=hidden;fillColor=none;top=0;left=0;bottom=0;right=0;pointerEvents=1;fontSize=16;" vertex="1" parent="R_btmFy2LlRhvHQ2iQoU-339">
          <mxGeometry width="147" height="21" as="geometry">
            <mxRectangle width="147" height="21" as="alternateBounds" />
          </mxGeometry>
        </mxCell>
        <mxCell id="R_btmFy2LlRhvHQ2iQoU-341" value="DATA TYPE" style="shape=partialRectangle;html=1;whiteSpace=wrap;connectable=0;strokeColor=inherit;overflow=hidden;fillColor=none;top=0;left=0;bottom=0;right=0;pointerEvents=1;fontSize=16;" vertex="1" parent="R_btmFy2LlRhvHQ2iQoU-339">
          <mxGeometry x="147" width="123" height="21" as="geometry">
            <mxRectangle width="123" height="21" as="alternateBounds" />
          </mxGeometry>
        </mxCell>
        <mxCell id="R_btmFy2LlRhvHQ2iQoU-342" value="CONSTRAINTS" style="shape=partialRectangle;html=1;whiteSpace=wrap;connectable=0;strokeColor=inherit;overflow=hidden;fillColor=none;top=0;left=0;bottom=0;right=0;pointerEvents=1;fontSize=16;" vertex="1" parent="R_btmFy2LlRhvHQ2iQoU-339">
          <mxGeometry x="270" width="151" height="21" as="geometry">
            <mxRectangle width="151" height="21" as="alternateBounds" />
          </mxGeometry>
        </mxCell>
        <mxCell id="R_btmFy2LlRhvHQ2iQoU-343" value="" style="shape=tableRow;horizontal=0;startSize=0;swimlaneHead=0;swimlaneBody=0;strokeColor=inherit;top=0;left=0;bottom=0;right=0;collapsible=0;dropTarget=0;fillColor=none;points=[[0,0.5],[1,0.5]];portConstraint=eastwest;fontSize=16;" vertex="1" parent="R_btmFy2LlRhvHQ2iQoU-338">
          <mxGeometry y="51" width="421" height="48" as="geometry" />
        </mxCell>
        <mxCell id="R_btmFy2LlRhvHQ2iQoU-344" value="&lt;span style=&quot;color: rgb(31, 35, 40); font-family: -apple-system, BlinkMacSystemFont, &amp;quot;Segoe UI&amp;quot;, &amp;quot;Noto Sans&amp;quot;, Helvetica, Arial, sans-serif, &amp;quot;Apple Color Emoji&amp;quot;, &amp;quot;Segoe UI Emoji&amp;quot;; text-align: start; background-color: rgb(255, 255, 255);&quot;&gt;disbursement_id&lt;/span&gt;" style="shape=partialRectangle;html=1;whiteSpace=wrap;connectable=0;strokeColor=inherit;overflow=hidden;fillColor=none;top=0;left=0;bottom=0;right=0;pointerEvents=1;fontSize=16;" vertex="1" parent="R_btmFy2LlRhvHQ2iQoU-343">
          <mxGeometry width="147" height="48" as="geometry">
            <mxRectangle width="147" height="48" as="alternateBounds" />
          </mxGeometry>
        </mxCell>
        <mxCell id="R_btmFy2LlRhvHQ2iQoU-345" value="INT" style="shape=partialRectangle;html=1;whiteSpace=wrap;connectable=0;strokeColor=inherit;overflow=hidden;fillColor=none;top=0;left=0;bottom=0;right=0;pointerEvents=1;fontSize=16;" vertex="1" parent="R_btmFy2LlRhvHQ2iQoU-343">
          <mxGeometry x="147" width="123" height="48" as="geometry">
            <mxRectangle width="123" height="48" as="alternateBounds" />
          </mxGeometry>
        </mxCell>
        <mxCell id="R_btmFy2LlRhvHQ2iQoU-346" value="&lt;span style=&quot;color: rgb(31, 35, 40); font-family: -apple-system, BlinkMacSystemFont, &amp;quot;Segoe UI&amp;quot;, &amp;quot;Noto Sans&amp;quot;, Helvetica, Arial, sans-serif, &amp;quot;Apple Color Emoji&amp;quot;, &amp;quot;Segoe UI Emoji&amp;quot;; text-align: start; background-color: rgb(255, 255, 255);&quot;&gt;PRIMARY KEY, AUTO_INCREMENT&lt;/span&gt;" style="shape=partialRectangle;html=1;whiteSpace=wrap;connectable=0;strokeColor=inherit;overflow=hidden;fillColor=none;top=0;left=0;bottom=0;right=0;pointerEvents=1;fontSize=16;" vertex="1" parent="R_btmFy2LlRhvHQ2iQoU-343">
          <mxGeometry x="270" width="151" height="48" as="geometry">
            <mxRectangle width="151" height="48" as="alternateBounds" />
          </mxGeometry>
        </mxCell>
        <mxCell id="R_btmFy2LlRhvHQ2iQoU-347" value="" style="shape=tableRow;horizontal=0;startSize=0;swimlaneHead=0;swimlaneBody=0;strokeColor=inherit;top=0;left=0;bottom=0;right=0;collapsible=0;dropTarget=0;fillColor=none;points=[[0,0.5],[1,0.5]];portConstraint=eastwest;fontSize=16;" vertex="1" parent="R_btmFy2LlRhvHQ2iQoU-338">
          <mxGeometry y="99" width="421" height="48" as="geometry" />
        </mxCell>
        <mxCell id="R_btmFy2LlRhvHQ2iQoU-348" value="&lt;span style=&quot;color: rgb(31, 35, 40); font-family: -apple-system, BlinkMacSystemFont, &amp;quot;Segoe UI&amp;quot;, &amp;quot;Noto Sans&amp;quot;, Helvetica, Arial, sans-serif, &amp;quot;Apple Color Emoji&amp;quot;, &amp;quot;Segoe UI Emoji&amp;quot;; text-align: start; background-color: rgb(255, 255, 255);&quot;&gt;award_id&lt;/span&gt;" style="shape=partialRectangle;html=1;whiteSpace=wrap;connectable=0;strokeColor=inherit;overflow=hidden;fillColor=none;top=0;left=0;bottom=0;right=0;pointerEvents=1;fontSize=16;" vertex="1" parent="R_btmFy2LlRhvHQ2iQoU-347">
          <mxGeometry width="147" height="48" as="geometry">
            <mxRectangle width="147" height="48" as="alternateBounds" />
          </mxGeometry>
        </mxCell>
        <mxCell id="R_btmFy2LlRhvHQ2iQoU-349" value="INT" style="shape=partialRectangle;html=1;whiteSpace=wrap;connectable=0;strokeColor=inherit;overflow=hidden;fillColor=none;top=0;left=0;bottom=0;right=0;pointerEvents=1;fontSize=16;" vertex="1" parent="R_btmFy2LlRhvHQ2iQoU-347">
          <mxGeometry x="147" width="123" height="48" as="geometry">
            <mxRectangle width="123" height="48" as="alternateBounds" />
          </mxGeometry>
        </mxCell>
        <mxCell id="R_btmFy2LlRhvHQ2iQoU-350" value="REFERENCES Awards(award_id)" style="shape=partialRectangle;html=1;whiteSpace=wrap;connectable=0;strokeColor=inherit;overflow=hidden;fillColor=none;top=0;left=0;bottom=0;right=0;pointerEvents=1;fontSize=16;" vertex="1" parent="R_btmFy2LlRhvHQ2iQoU-347">
          <mxGeometry x="270" width="151" height="48" as="geometry">
            <mxRectangle width="151" height="48" as="alternateBounds" />
          </mxGeometry>
        </mxCell>
        <mxCell id="R_btmFy2LlRhvHQ2iQoU-351" value="" style="shape=tableRow;horizontal=0;startSize=0;swimlaneHead=0;swimlaneBody=0;strokeColor=inherit;top=0;left=0;bottom=0;right=0;collapsible=0;dropTarget=0;fillColor=none;points=[[0,0.5],[1,0.5]];portConstraint=eastwest;fontSize=16;" vertex="1" parent="R_btmFy2LlRhvHQ2iQoU-338">
          <mxGeometry y="147" width="421" height="44" as="geometry" />
        </mxCell>
        <mxCell id="R_btmFy2LlRhvHQ2iQoU-352" value="&lt;span style=&quot;color: rgb(31, 35, 40); font-family: -apple-system, BlinkMacSystemFont, &amp;quot;Segoe UI&amp;quot;, &amp;quot;Noto Sans&amp;quot;, Helvetica, Arial, sans-serif, &amp;quot;Apple Color Emoji&amp;quot;, &amp;quot;Segoe UI Emoji&amp;quot;; text-align: start; background-color: rgb(246, 248, 250);&quot;&gt;disbursement_date&lt;/span&gt;" style="shape=partialRectangle;html=1;whiteSpace=wrap;connectable=0;strokeColor=inherit;overflow=hidden;fillColor=none;top=0;left=0;bottom=0;right=0;pointerEvents=1;fontSize=16;" vertex="1" parent="R_btmFy2LlRhvHQ2iQoU-351">
          <mxGeometry width="147" height="44" as="geometry">
            <mxRectangle width="147" height="44" as="alternateBounds" />
          </mxGeometry>
        </mxCell>
        <mxCell id="R_btmFy2LlRhvHQ2iQoU-353" value="DATE" style="shape=partialRectangle;html=1;whiteSpace=wrap;connectable=0;strokeColor=inherit;overflow=hidden;fillColor=none;top=0;left=0;bottom=0;right=0;pointerEvents=1;fontSize=16;" vertex="1" parent="R_btmFy2LlRhvHQ2iQoU-351">
          <mxGeometry x="147" width="123" height="44" as="geometry">
            <mxRectangle width="123" height="44" as="alternateBounds" />
          </mxGeometry>
        </mxCell>
        <mxCell id="R_btmFy2LlRhvHQ2iQoU-354" value="" style="shape=partialRectangle;html=1;whiteSpace=wrap;connectable=0;strokeColor=inherit;overflow=hidden;fillColor=none;top=0;left=0;bottom=0;right=0;pointerEvents=1;fontSize=16;" vertex="1" parent="R_btmFy2LlRhvHQ2iQoU-351">
          <mxGeometry x="270" width="151" height="44" as="geometry">
            <mxRectangle width="151" height="44" as="alternateBounds" />
          </mxGeometry>
        </mxCell>
        <mxCell id="R_btmFy2LlRhvHQ2iQoU-355" value="" style="shape=tableRow;horizontal=0;startSize=0;swimlaneHead=0;swimlaneBody=0;strokeColor=inherit;top=0;left=0;bottom=0;right=0;collapsible=0;dropTarget=0;fillColor=none;points=[[0,0.5],[1,0.5]];portConstraint=eastwest;fontSize=16;" vertex="1" parent="R_btmFy2LlRhvHQ2iQoU-338">
          <mxGeometry y="191" width="421" height="44" as="geometry" />
        </mxCell>
        <mxCell id="R_btmFy2LlRhvHQ2iQoU-356" value="&lt;div style=&quot;text-align: start;&quot;&gt;&lt;font face=&quot;-apple-system, BlinkMacSystemFont, Segoe UI, Noto Sans, Helvetica, Arial, sans-serif, Apple Color Emoji, Segoe UI Emoji&quot; color=&quot;#1f2328&quot;&gt;&lt;span style=&quot;background-color: rgb(255, 255, 255);&quot;&gt;amount&lt;/span&gt;&lt;/font&gt;&lt;/div&gt;" style="shape=partialRectangle;html=1;whiteSpace=wrap;connectable=0;strokeColor=inherit;overflow=hidden;fillColor=none;top=0;left=0;bottom=0;right=0;pointerEvents=1;fontSize=16;" vertex="1" parent="R_btmFy2LlRhvHQ2iQoU-355">
          <mxGeometry width="147" height="44" as="geometry">
            <mxRectangle width="147" height="44" as="alternateBounds" />
          </mxGeometry>
        </mxCell>
        <mxCell id="R_btmFy2LlRhvHQ2iQoU-357" value="DECIMAL(10, 2)" style="shape=partialRectangle;html=1;whiteSpace=wrap;connectable=0;strokeColor=inherit;overflow=hidden;fillColor=none;top=0;left=0;bottom=0;right=0;pointerEvents=1;fontSize=16;" vertex="1" parent="R_btmFy2LlRhvHQ2iQoU-355">
          <mxGeometry x="147" width="123" height="44" as="geometry">
            <mxRectangle width="123" height="44" as="alternateBounds" />
          </mxGeometry>
        </mxCell>
        <mxCell id="R_btmFy2LlRhvHQ2iQoU-358" value="" style="shape=partialRectangle;html=1;whiteSpace=wrap;connectable=0;strokeColor=inherit;overflow=hidden;fillColor=none;top=0;left=0;bottom=0;right=0;pointerEvents=1;fontSize=16;" vertex="1" parent="R_btmFy2LlRhvHQ2iQoU-355">
          <mxGeometry x="270" width="151" height="44" as="geometry">
            <mxRectangle width="151" height="44" as="alternateBounds" />
          </mxGeometry>
        </mxCell>
        <mxCell id="R_btmFy2LlRhvHQ2iQoU-363" value="" style="endArrow=none;html=1;rounded=0;exitX=0.469;exitY=1.043;exitDx=0;exitDy=0;exitPerimeter=0;entryX=0.446;entryY=1.111;entryDx=0;entryDy=0;entryPerimeter=0;" edge="1" parent="1" source="R_btmFy2LlRhvHQ2iQoU-330" target="R_btmFy2LlRhvHQ2iQoU-300">
          <mxGeometry relative="1" as="geometry">
            <mxPoint x="770.3700000000003" y="1025.12" as="sourcePoint" />
            <mxPoint x="-560" y="1100" as="targetPoint" />
            <Array as="points">
              <mxPoint x="770" y="1140" />
              <mxPoint x="-560" y="1140" />
            </Array>
          </mxGeometry>
        </mxCell>
        <mxCell id="R_btmFy2LlRhvHQ2iQoU-364" value="" style="endArrow=none;html=1;rounded=0;" edge="1" parent="1">
          <mxGeometry relative="1" as="geometry">
            <mxPoint x="670" y="770" as="sourcePoint" />
            <mxPoint x="1249" y="696" as="targetPoint" />
            <Array as="points">
              <mxPoint x="670" y="696" />
              <mxPoint x="1249" y="696" />
              <mxPoint x="1249" y="760" />
            </Array>
          </mxGeometry>
        </mxCell>
      </root>
    </mxGraphModel>
  </diagram>
</mxfile>
